<?xml version="1.0" encoding="UTF-8" standalone="no"?>
<!DOCTYPE svg PUBLIC "-//W3C//DTD SVG 1.1//EN"
 "http://www.w3.org/Graphics/SVG/1.1/DTD/svg11.dtd">
<!-- Generated by graphviz version 2.40.1 (20161225.0304)
 -->
<!-- Title: G Pages: 1 -->
<svg width="826pt" height="506pt"
 viewBox="0.00 0.00 826.04 506.00" xmlns="http://www.w3.org/2000/svg" xmlns:xlink="http://www.w3.org/1999/xlink">
<g id="graph0" class="graph" transform="scale(1 1) rotate(0) translate(4 502)">
<title>G</title>
<polygon fill="#ffffff" stroke="transparent" points="-4,4 -4,-502 822.044,-502 822.044,4 -4,4"/>
<!-- A0 -->
<g id="node1" class="node">
<title>A0</title>
<polygon fill="none" stroke="#000000" points="34.158,-280 34.158,-312 87.158,-312 87.158,-280 34.158,-280"/>
<text text-anchor="start" x="44.109" y="-293" font-family="Helvetica,sans-Serif" font-size="10.00" fill="#000000">네트워크</text>
<polygon fill="none" stroke="#000000" points="34.158,-248 34.158,-280 87.158,-280 87.158,-248 34.158,-248"/>
<text text-anchor="start" x="53.9945" y="-261" font-family="Helvetica,sans-Serif" font-size="10.00" fill="#000000">&#45;ID</text>
</g>
<!-- A1 -->
<g id="node2" class="node">
<title>A1</title>
<polygon fill="none" stroke="#000000" points="273.3461,-352 211.5619,-352 211.5619,-316 273.3461,-316 273.3461,-352"/>
<text text-anchor="middle" x="242.454" y="-331" font-family="Helvetica,sans-Serif" font-size="10.00" fill="#000000">CA조직</text>
</g>
<!-- A0&#45;&gt;A1 -->
<g id="edge1" class="edge">
<title>A0&#45;&gt;A1</title>
<path fill="none" stroke="#000000" d="M99.0917,-291.533C129.1885,-300.4483 170.7459,-312.7585 201.3711,-321.8304"/>
<polygon fill="none" stroke="#000000" points="98.9554,-291.4927 92.0663,-293.6238 87.4496,-288.0843 94.3386,-285.9532 98.9554,-291.4927"/>
<polygon fill="#000000" stroke="#000000" points="211.3056,-324.7732 200.4392,-326.2475 206.5115,-323.353 201.7174,-321.9329 201.7174,-321.9329 201.7174,-321.9329 206.5115,-323.353 202.9955,-317.6182 211.3056,-324.7732 211.3056,-324.7732"/>
<text text-anchor="middle" x="191.5252" y="-324.7292" font-family="Helvetica,sans-Serif" font-size="10.00" fill="#000000">cas*</text>
</g>
<!-- A9 -->
<g id="node10" class="node">
<title>A9</title>
<polygon fill="none" stroke="#000000" points="269.454,-298 215.454,-298 215.454,-262 269.454,-262 269.454,-298"/>
<text text-anchor="middle" x="242.454" y="-277" font-family="Helvetica,sans-Serif" font-size="10.00" fill="#000000">호스트</text>
</g>
<!-- A0&#45;&gt;A9 -->
<g id="edge11" class="edge">
<title>A0&#45;&gt;A9</title>
<path fill="none" stroke="#000000" d="M99.5731,-280C130.8309,-280 174.2239,-280 204.9677,-280"/>
<polygon fill="none" stroke="#000000" points="99.4496,-280.0001 93.4495,-284 87.4496,-280 93.4496,-276 99.4496,-280.0001"/>
<polygon fill="#000000" stroke="#000000" points="215.274,-280 205.274,-284.5001 210.274,-280 205.274,-280.0001 205.274,-280.0001 205.274,-280.0001 210.274,-280 205.274,-275.5001 215.274,-280 215.274,-280"/>
<text text-anchor="middle" x="197.1479" y="-285.4524" font-family="Helvetica,sans-Serif" font-size="10.00" fill="#000000">hosts*</text>
</g>
<!-- A11 -->
<g id="node12" class="node">
<title>A11</title>
<polygon fill="none" stroke="#000000" points="202.454,-175 202.454,-207 282.454,-207 282.454,-175 202.454,-175"/>
<text text-anchor="start" x="234.672" y="-188" font-family="Helvetica,sans-Serif" font-size="10.00" fill="#000000">설정</text>
<polygon fill="none" stroke="#000000" points="202.454,-119 202.454,-175 282.454,-175 282.454,-119 202.454,-119"/>
<text text-anchor="start" x="212.253" y="-156" font-family="Helvetica,sans-Serif" font-size="10.00" fill="#000000">블록체인종류</text>
<text text-anchor="start" x="232.292" y="-144" font-family="Helvetica,sans-Serif" font-size="10.00" fill="#000000">버전</text>
<text text-anchor="start" x="221.4565" y="-132" font-family="Helvetica,sans-Serif" font-size="10.00" fill="#000000">서비스타입</text>
</g>
<!-- A0&#45;&gt;A11 -->
<g id="edge13" class="edge">
<title>A0&#45;&gt;A11</title>
<path fill="none" stroke="#000000" d="M87.4496,-262.4839C115.4686,-244.5009 159.666,-216.1344 193.709,-194.2852"/>
<polygon fill="#000000" stroke="#000000" points="202.1291,-188.881 196.144,-198.0696 197.9212,-191.5817 193.7133,-194.2824 193.7133,-194.2824 193.7133,-194.2824 197.9212,-191.5817 191.2827,-190.4953 202.1291,-188.881 202.1291,-188.881"/>
<text text-anchor="middle" x="191.44" y="-202.7849" font-family="Helvetica,sans-Serif" font-size="10.00" fill="#000000">커스텀노드설정</text>
</g>
<!-- A2 -->
<g id="node3" class="node">
<title>A2</title>
<polygon fill="none" stroke="#000000" points="438.8848,-398 364.4942,-398 364.4942,-362 438.8848,-362 438.8848,-398"/>
<text text-anchor="middle" x="401.6895" y="-377" font-family="Helvetica,sans-Serif" font-size="10.00" fill="#000000">오더러조직</text>
</g>
<!-- A1&#45;&gt;A2 -->
<g id="edge2" class="edge">
<title>A1&#45;&gt;A2</title>
<path fill="none" stroke="#000000" d="M285.1389,-346.3308C306.6096,-352.5333 332.6838,-360.0656 354.7214,-366.4318"/>
<polygon fill="none" stroke="#000000" points="285.0628,-346.3089 278.1884,-348.4866 273.5342,-342.9785 280.4087,-340.8008 285.0628,-346.3089"/>
<polygon fill="#000000" stroke="#000000" points="364.5317,-369.2658 353.6756,-370.8137 359.7281,-367.8782 354.9245,-366.4905 354.9245,-366.4905 354.9245,-366.4905 359.7281,-367.8782 356.1735,-362.1672 364.5317,-369.2658 364.5317,-369.2658"/>
<text text-anchor="middle" x="344.7718" y="-369.3556" font-family="Helvetica,sans-Serif" font-size="10.00" fill="#000000">order_orgs*</text>
</g>
<!-- A3 -->
<g id="node4" class="node">
<title>A3</title>
<polygon fill="none" stroke="#000000" points="698.2446,-498 626.4464,-498 626.4464,-462 698.2446,-462 698.2446,-498"/>
<text text-anchor="middle" x="662.3455" y="-477" font-family="Helvetica,sans-Serif" font-size="10.00" fill="#000000">피어조직</text>
</g>
<!-- A1&#45;&gt;A3 -->
<g id="edge3" class="edge">
<title>A1&#45;&gt;A3</title>
<path fill="none" stroke="#000000" d="M280.816,-358.6615C304.5231,-373.463 335.8169,-392.2226 364.592,-407 418.1339,-434.4965 430.614,-445.5502 488.787,-461 531.0495,-472.2242 580.7942,-476.8318 616.1681,-478.7157"/>
<polygon fill="none" stroke="#000000" points="280.6509,-358.5577 273.4423,-358.7485 270.4937,-352.1678 277.7023,-351.977 280.6509,-358.5577"/>
<polygon fill="#000000" stroke="#000000" points="626.2025,-479.1977 615.998,-483.2126 621.2082,-478.9578 616.214,-478.7178 616.214,-478.7178 616.214,-478.7178 621.2082,-478.9578 616.4299,-474.223 626.2025,-479.1977 626.2025,-479.1977"/>
<text text-anchor="middle" x="607.6916" y="-483.7707" font-family="Helvetica,sans-Serif" font-size="10.00" fill="#000000">peer_orgs*</text>
</g>
<!-- A4 -->
<g id="node5" class="node">
<title>A4</title>
<polygon fill="none" stroke="#000000" points="562.3341,-344 502.8489,-344 502.8489,-308 562.3341,-308 562.3341,-344"/>
<text text-anchor="middle" x="532.5915" y="-323" font-family="Helvetica,sans-Serif" font-size="10.00" fill="#000000">CA노드</text>
</g>
<!-- A1&#45;&gt;A4 -->
<g id="edge4" class="edge">
<title>A1&#45;&gt;A4</title>
<path fill="none" stroke="#000000" d="M285.8391,-332.8037C341.7109,-331.2632 438.0636,-328.6064 492.3603,-327.1093"/>
<polygon fill="none" stroke="#000000" points="285.4992,-332.813 279.6118,-336.9769 273.5038,-333.1439 279.3912,-328.98 285.4992,-332.813"/>
<polygon fill="#000000" stroke="#000000" points="502.6345,-326.826 492.7624,-331.6 497.6364,-326.9639 492.6383,-327.1017 492.6383,-327.1017 492.6383,-327.1017 497.6364,-326.9639 492.5142,-322.6034 502.6345,-326.826 502.6345,-326.826"/>
<text text-anchor="middle" x="484.7482" y="-332.7748" font-family="Helvetica,sans-Serif" font-size="10.00" fill="#000000">ca_nodes*</text>
</g>
<!-- A5 -->
<g id="node6" class="node">
<title>A5</title>
<polygon fill="none" stroke="#000000" points="563.5039,-252 501.6791,-252 501.6791,-216 563.5039,-216 563.5039,-252"/>
<text text-anchor="middle" x="532.5915" y="-231" font-family="Helvetica,sans-Serif" font-size="10.00" fill="#000000">CLI노드</text>
</g>
<!-- A1&#45;&gt;A5 -->
<g id="edge5" class="edge">
<title>A1&#45;&gt;A5</title>
<path fill="none" stroke="#000000" d="M273.4454,-325.9032C286.7929,-321.5561 302.1552,-315.345 314.592,-307 341.7525,-288.7755 335.4042,-267.7614 364.592,-253 404.4048,-232.8651 456.1644,-229.9419 491.6496,-230.89"/>
<polygon fill="#000000" stroke="#000000" points="501.6552,-231.2711 491.4911,-235.3871 496.6588,-231.0807 491.6624,-230.8904 491.6624,-230.8904 491.6624,-230.8904 496.6588,-231.0807 491.8337,-226.3936 501.6552,-231.2711 501.6552,-231.2711"/>
<text text-anchor="middle" x="483.2204" y="-236.0274" font-family="Helvetica,sans-Serif" font-size="10.00" fill="#000000">cli_node</text>
</g>
<!-- A7 -->
<g id="node8" class="node">
<title>A7</title>
<polygon fill="none" stroke="#000000" points="568.6365,-398 496.5465,-398 496.5465,-362 568.6365,-362 568.6365,-398"/>
<text text-anchor="middle" x="532.5915" y="-377" font-family="Helvetica,sans-Serif" font-size="10.00" fill="#000000">오더러노드</text>
</g>
<!-- A2&#45;&gt;A7 -->
<g id="edge7" class="edge">
<title>A2&#45;&gt;A7</title>
<path fill="none" stroke="#000000" d="M451.0881,-380C462.5673,-380 474.7485,-380 486.0975,-380"/>
<polygon fill="none" stroke="#000000" points="450.8506,-380.0001 444.8506,-384 438.8506,-380 444.8506,-376 450.8506,-380.0001"/>
<polygon fill="#000000" stroke="#000000" points="496.2421,-380 486.2421,-384.5001 491.2421,-380 486.2421,-380.0001 486.2421,-380.0001 486.2421,-380.0001 491.2421,-380 486.2421,-375.5001 496.2421,-380 496.2421,-380"/>
<text text-anchor="middle" x="478.1159" y="-385.4524" font-family="Helvetica,sans-Serif" font-size="10.00" fill="#000000">order_nodes*</text>
</g>
<!-- A8 -->
<g id="node9" class="node">
<title>A8</title>
<polygon fill="none" stroke="#000000" points="559.5915,-452 505.5915,-452 505.5915,-416 559.5915,-416 559.5915,-452"/>
<text text-anchor="middle" x="532.5915" y="-431" font-family="Helvetica,sans-Serif" font-size="10.00" fill="#000000">채널</text>
</g>
<!-- A2&#45;&gt;A8 -->
<g id="edge8" class="edge">
<title>A2&#45;&gt;A8</title>
<path fill="none" stroke="#000000" d="M450.1373,-399.9858C465.2759,-406.2308 481.7186,-413.0138 495.9089,-418.8676"/>
<polygon fill="none" stroke="#000000" points="449.9438,-399.906 442.8718,-401.3156 438.8506,-395.3298 445.9226,-393.9202 449.9438,-399.906"/>
<polygon fill="#000000" stroke="#000000" points="505.3294,-422.7538 494.369,-423.1002 500.7072,-420.847 496.0851,-418.9402 496.0851,-418.9402 496.0851,-418.9402 500.7072,-420.847 497.8012,-414.7803 505.3294,-422.7538 505.3294,-422.7538"/>
<text text-anchor="middle" x="485.3497" y="-420.655" font-family="Helvetica,sans-Serif" font-size="10.00" fill="#000000">channels*</text>
</g>
<!-- A6 -->
<g id="node7" class="node">
<title>A6</title>
<polygon fill="none" stroke="#000000" points="817.919,-452 748.42,-452 748.42,-416 817.919,-416 817.919,-452"/>
<text text-anchor="middle" x="783.1695" y="-431" font-family="Helvetica,sans-Serif" font-size="10.00" fill="#000000">피어노드</text>
</g>
<!-- A3&#45;&gt;A6 -->
<g id="edge6" class="edge">
<title>A3&#45;&gt;A6</title>
<path fill="none" stroke="#000000" d="M709.6925,-461.9741C719.1661,-458.3673 729.0899,-454.5891 738.4706,-451.0177"/>
<polygon fill="none" stroke="#000000" points="709.4843,-462.0533 705.3002,-467.9264 698.2696,-466.323 702.4537,-460.4499 709.4843,-462.0533"/>
<polygon fill="#000000" stroke="#000000" points="748.0079,-447.3867 740.2634,-455.1503 743.3351,-449.1658 738.6623,-450.9448 738.6623,-450.9448 738.6623,-450.9448 743.3351,-449.1658 737.0611,-446.7393 748.0079,-447.3867 748.0079,-447.3867"/>
<text text-anchor="middle" x="734.0753" y="-458.7353" font-family="Helvetica,sans-Serif" font-size="10.00" fill="#000000">peer_nodes*</text>
</g>
<!-- A8&#45;&gt;A3 -->
<g id="edge9" class="edge">
<title>A8&#45;&gt;A3</title>
<path fill="none" stroke="#000000" d="M571.3015,-447.7233C585.6053,-452.7943 601.9478,-458.588 616.8021,-463.8541"/>
<polygon fill="none" stroke="#000000" points="571.1025,-447.6529 564.1107,-449.4181 559.7922,-443.6431 566.7839,-441.8779 571.1025,-447.6529"/>
<polygon fill="#000000" stroke="#000000" points="626.3122,-467.2256 615.3833,-468.1255 621.5996,-465.5548 616.887,-463.8841 616.887,-463.8841 616.887,-463.8841 621.5996,-465.5548 618.3906,-459.6428 626.3122,-467.2256 626.3122,-467.2256"/>
<text text-anchor="middle" x="606.4036" y="-466.1354" font-family="Helvetica,sans-Serif" font-size="10.00" fill="#000000">orgs*</text>
</g>
<!-- A8&#45;&gt;A6 -->
<g id="edge10" class="edge">
<title>A8&#45;&gt;A6</title>
<path fill="none" stroke="#000000" d="M572.0422,-434C617.1154,-434 690.7336,-434 738.0497,-434"/>
<polygon fill="none" stroke="#000000" points="571.8847,-434.0001 565.8847,-438 559.8847,-434 565.8848,-430 571.8847,-434.0001"/>
<polygon fill="#000000" stroke="#000000" points="748.3102,-434 738.3102,-438.5001 743.3102,-434 738.3102,-434.0001 738.3102,-434.0001 738.3102,-434.0001 743.3102,-434 738.3102,-429.5001 748.3102,-434 748.3102,-434"/>
<text text-anchor="middle" x="730.184" y="-439.4524" font-family="Helvetica,sans-Serif" font-size="10.00" fill="#000000">peer_nodes*</text>
</g>
<!-- A10 -->
<g id="node11" class="node">
<title>A10</title>
<polygon fill="none" stroke="#000000" points="428.6895,-298 374.6895,-298 374.6895,-262 428.6895,-262 428.6895,-298"/>
<text text-anchor="middle" x="401.6895" y="-277" font-family="Helvetica,sans-Serif" font-size="10.00" fill="#000000">노드</text>
</g>
<!-- A9&#45;&gt;A10 -->
<g id="edge12" class="edge">
<title>A9&#45;&gt;A10</title>
<path fill="none" stroke="#000000" d="M281.5729,-280C306.8333,-280 339.5065,-280 364.3979,-280"/>
<polygon fill="none" stroke="#000000" points="281.4661,-280.0001 275.4661,-284 269.4661,-280 275.4662,-276 281.4661,-280.0001"/>
<polygon fill="#000000" stroke="#000000" points="374.5449,-280 364.5449,-284.5001 369.5449,-280 364.5449,-280.0001 364.5449,-280.0001 364.5449,-280.0001 369.5449,-280 364.5448,-275.5001 374.5449,-280 374.5449,-280"/>
<text text-anchor="middle" x="356.4187" y="-285.4524" font-family="Helvetica,sans-Serif" font-size="10.00" fill="#000000">nodes*</text>
</g>
<!-- A10&#45;&gt;A4 -->
<g id="edge22" class="edge">
<title>A10&#45;&gt;A4</title>
<path fill="none" stroke="#000000" d="M438.374,-292.8912C458.7007,-300.0342 483.6484,-308.801 502.765,-315.5187"/>
<polygon fill="none" stroke="#000000" points="439.4073,-289.5446 428.8125,-289.5312 437.0865,-296.1487 439.4073,-289.5446"/>
</g>
<!-- A10&#45;&gt;A5 -->
<g id="edge23" class="edge">
<title>A10&#45;&gt;A5</title>
<path fill="none" stroke="#000000" d="M438.5088,-267.0614C458.4821,-260.0426 482.8859,-251.4669 501.8336,-244.8086"/>
<polygon fill="none" stroke="#000000" points="437.0865,-263.8513 428.8125,-270.4688 439.4073,-270.4554 437.0865,-263.8513"/>
</g>
<!-- A10&#45;&gt;A6 -->
<g id="edge21" class="edge">
<title>A10&#45;&gt;A6</title>
<path fill="none" stroke="#000000" d="M438.9995,-279.087C475.156,-279.3412 531.0296,-282.7802 576.396,-299 652.0884,-326.0622 727.8252,-385.9021 762.9368,-415.9883"/>
<polygon fill="none" stroke="#000000" points="438.8946,-275.587 428.8977,-279.0956 438.9007,-282.587 438.8946,-275.587"/>
</g>
<!-- A10&#45;&gt;A7 -->
<g id="edge20" class="edge">
<title>A10&#45;&gt;A7</title>
<path fill="none" stroke="#000000" d="M429.5248,-305.1097C446.2235,-319.7158 468.1613,-338.1198 488.787,-353 492.989,-356.0315 497.5356,-359.0753 502.0547,-361.9702"/>
<polygon fill="none" stroke="#000000" points="431.5918,-302.266 421.7767,-298.2766 426.9617,-307.516 431.5918,-302.266"/>
</g>
<!-- A12 -->
<g id="node13" class="node">
<title>A12</title>
<polygon fill="none" stroke="#000000" points="432.6089,-144 370.7701,-144 370.7701,-108 432.6089,-108 432.6089,-144"/>
<text text-anchor="middle" x="401.6895" y="-123" font-family="Helvetica,sans-Serif" font-size="10.00" fill="#000000">노드설정</text>
</g>
<!-- A11&#45;&gt;A12 -->
<g id="edge14" class="edge">
<title>A11&#45;&gt;A12</title>
<path fill="none" stroke="#000000" d="M294.6207,-150.8785C316.1826,-145.8684 340.8052,-140.1471 360.9973,-135.4552"/>
<polygon fill="none" stroke="#000000" points="294.3244,-150.9473 289.3855,-156.2015 282.6358,-153.6633 287.5748,-148.4091 294.3244,-150.9473"/>
<polygon fill="#000000" stroke="#000000" points="370.8162,-133.1737 362.0942,-139.8203 365.9459,-134.3054 361.0757,-135.4371 361.0757,-135.4371 361.0757,-135.4371 365.9459,-134.3054 360.0572,-131.0539 370.8162,-133.1737 370.8162,-133.1737"/>
<text text-anchor="middle" x="355.0734" y="-142.5093" font-family="Helvetica,sans-Serif" font-size="10.00" fill="#000000">버전노드설정들*</text>
</g>
<!-- A13 -->
<g id="node14" class="node">
<title>A13</title>
<polygon fill="#f5deb3" stroke="#000000" points="308.7303,-101 170.1777,-101 170.1777,-65 314.7303,-65 314.7303,-95 308.7303,-101"/>
<polyline fill="none" stroke="#000000" points="308.7303,-101 308.7303,-95 "/>
<polyline fill="none" stroke="#000000" points="314.7303,-95 308.7303,-95 "/>
<text text-anchor="middle" x="242.454" y="-80" font-family="Helvetica,sans-Serif" font-size="10.00" fill="#000000">노드부분에 수정사항 추가</text>
</g>
<!-- A11&#45;&gt;A13 -->
<g id="edge15" class="edge">
<title>A11&#45;&gt;A13</title>
<path fill="none" stroke="#000000" stroke-dasharray="5,2" d="M242.454,-118.5273C242.454,-112.7266 242.454,-106.9258 242.454,-101.125"/>
</g>
<!-- A14 -->
<g id="node15" class="node">
<title>A14</title>
<polygon fill="none" stroke="#000000" points="570.3981,-144 494.7849,-144 494.7849,-108 570.3981,-108 570.3981,-144"/>
<text text-anchor="middle" x="532.5915" y="-123" font-family="Helvetica,sans-Serif" font-size="10.00" fill="#000000">CA노드설정</text>
</g>
<!-- A12&#45;&gt;A14 -->
<g id="edge16" class="edge">
<title>A12&#45;&gt;A14</title>
<path fill="none" stroke="#000000" d="M442.7138,-126C459.365,-126 478.4787,-126 494.7869,-126"/>
<polygon fill="none" stroke="#000000" points="442.7115,-122.5001 432.7114,-126 442.7114,-129.5001 442.7115,-122.5001"/>
</g>
<!-- A15 -->
<g id="node16" class="node">
<title>A15</title>
<polygon fill="none" stroke="#000000" points="576.2014,-90 488.9816,-90 488.9816,-54 576.2014,-54 576.2014,-90"/>
<text text-anchor="middle" x="532.5915" y="-69" font-family="Helvetica,sans-Serif" font-size="10.00" fill="#000000">오더러노드설정</text>
</g>
<!-- A12&#45;&gt;A15 -->
<g id="edge17" class="edge">
<title>A12&#45;&gt;A15</title>
<path fill="none" stroke="#000000" d="M442.1287,-109.3179C456.9612,-103.1992 473.8111,-96.2482 488.9149,-90.0176"/>
<polygon fill="none" stroke="#000000" points="440.621,-106.1537 432.7114,-113.2028 443.2905,-112.6247 440.621,-106.1537"/>
</g>
<!-- A16 -->
<g id="node17" class="node">
<title>A16</title>
<polygon fill="none" stroke="#000000" points="575.4051,-36 489.7779,-36 489.7779,0 575.4051,0 575.4051,-36"/>
<text text-anchor="middle" x="532.5915" y="-15" font-family="Helvetica,sans-Serif" font-size="10.00" fill="#000000">피어노드설정</text>
</g>
<!-- A12&#45;&gt;A16 -->
<g id="edge18" class="edge">
<title>A12&#45;&gt;A16</title>
<path fill="none" stroke="#000000" d="M426.3772,-100.5609C443.2079,-83.8572 466.4188,-62.0311 488.787,-45 492.7673,-41.9694 497.1024,-38.9727 501.4465,-36.14"/>
<polygon fill="none" stroke="#000000" points="423.7019,-98.287 419.1191,-107.8395 428.6586,-103.2298 423.7019,-98.287"/>
</g>
<!-- A17 -->
<g id="node18" class="node">
<title>A17</title>
<polygon fill="none" stroke="#000000" points="571.0665,-198 494.1165,-198 494.1165,-162 571.0665,-162 571.0665,-198"/>
<text text-anchor="middle" x="532.5915" y="-177" font-family="Helvetica,sans-Serif" font-size="10.00" fill="#000000">CLI노드설정</text>
</g>
<!-- A12&#45;&gt;A17 -->
<g id="edge19" class="edge">
<title>A12&#45;&gt;A17</title>
<path fill="none" stroke="#000000" d="M442.0828,-142.6632C458.5551,-149.4583 477.5213,-157.2823 493.823,-164.0071"/>
<polygon fill="none" stroke="#000000" points="443.2905,-139.3753 432.7114,-138.7972 440.621,-145.8463 443.2905,-139.3753"/>
</g>
<!-- A18 -->
<g id="node19" class="node">
<title>A18</title>
<polygon fill="none" stroke="#000000" points="87.158,-398 33.158,-398 33.158,-362 87.158,-362 87.158,-398"/>
<text text-anchor="middle" x="60.158" y="-377" font-family="Helvetica,sans-Serif" font-size="10.00" fill="#000000">조직</text>
</g>
<!-- A18&#45;&gt;A1 -->
<g id="edge26" class="edge">
<title>A18&#45;&gt;A1</title>
<path fill="none" stroke="#000000" d="M97.3419,-370.6171C130.9121,-362.1461 179.7438,-349.8241 211.3056,-341.8599"/>
<polygon fill="none" stroke="#000000" points="96.2893,-367.273 87.4496,-373.1133 98.002,-374.0602 96.2893,-367.273"/>
</g>
<!-- A18&#45;&gt;A2 -->
<g id="edge24" class="edge">
<title>A18&#45;&gt;A2</title>
<path fill="none" stroke="#000000" d="M97.5496,-380C163.2926,-380 298.829,-380 364.4583,-380"/>
<polygon fill="none" stroke="#000000" points="97.2429,-376.5001 87.2429,-380 97.2428,-383.5001 97.2429,-376.5001"/>
</g>
<!-- A18&#45;&gt;A3 -->
<g id="edge25" class="edge">
<title>A18&#45;&gt;A3</title>
<path fill="none" stroke="#000000" d="M97.0613,-391.8797C170.6158,-414.8626 341.1301,-464.6731 488.787,-482 536.0738,-487.5489 591.1029,-485.4865 626.3049,-483.0944"/>
<polygon fill="none" stroke="#000000" points="97.9279,-388.4833 87.3385,-388.821 95.8272,-395.1607 97.9279,-388.4833"/>
</g>
<!-- A19 -->
<g id="node20" class="node">
<title>A19</title>
<polygon fill="#f5deb3" stroke="#000000" points="114.4744,-484 -.1584,-484 -.1584,-416 120.4744,-416 120.4744,-478 114.4744,-484"/>
<polyline fill="none" stroke="#000000" points="114.4744,-484 114.4744,-478 "/>
<polyline fill="none" stroke="#000000" points="120.4744,-478 114.4744,-478 "/>
<text text-anchor="middle" x="60.158" y="-471" font-family="Helvetica,sans-Serif" font-size="10.00" fill="#000000">설정&#45;Config</text>
<text text-anchor="middle" x="60.158" y="-447" font-family="Helvetica,sans-Serif" font-size="10.00" fill="#000000">노드설정&#45;NodeConfig </text>
<text text-anchor="middle" x="60.158" y="-423" font-family="Helvetica,sans-Serif" font-size="10.00" fill="#000000">조직&#45;Org</text>
</g>
</g>
</svg>
