<?xml version="1.0" encoding="UTF-8" standalone="no"?>
<!DOCTYPE svg PUBLIC "-//W3C//DTD SVG 1.1//EN"
 "http://www.w3.org/Graphics/SVG/1.1/DTD/svg11.dtd">
<!-- Generated by graphviz version 2.40.1 (20161225.0304)
 -->
<!-- Title: G Pages: 1 -->
<svg width="832pt" height="506pt"
 viewBox="0.00 0.00 831.62 506.00" xmlns="http://www.w3.org/2000/svg" xmlns:xlink="http://www.w3.org/1999/xlink">
<g id="graph0" class="graph" transform="scale(1 1) rotate(0) translate(4 502)">
<title>G</title>
<polygon fill="#ffffff" stroke="transparent" points="-4,4 -4,-502 827.622,-502 827.622,4 -4,4"/>
<!-- A0 -->
<g id="node1" class="node">
<title>A0</title>
<polygon fill="none" stroke="#000000" points="18.4795,-218 18.4795,-250 71.4795,-250 71.4795,-218 18.4795,-218"/>
<text text-anchor="start" x="28.4305" y="-231" font-family="Helvetica,sans-Serif" font-size="10.00" fill="#000000">네트워크</text>
<polygon fill="none" stroke="#000000" points="18.4795,-186 18.4795,-218 71.4795,-218 71.4795,-186 18.4795,-186"/>
<text text-anchor="start" x="38.316" y="-199" font-family="Helvetica,sans-Serif" font-size="10.00" fill="#000000">&#45;ID</text>
</g>
<!-- A1 -->
<g id="node2" class="node">
<title>A1</title>
<polygon fill="none" stroke="#000000" points="260.4566,-182 198.6724,-182 198.6724,-146 260.4566,-146 260.4566,-182"/>
<text text-anchor="middle" x="229.5645" y="-161" font-family="Helvetica,sans-Serif" font-size="10.00" fill="#000000">CA조직</text>
</g>
<!-- A0&#45;&gt;A1 -->
<g id="edge1" class="edge">
<title>A0&#45;&gt;A1</title>
<path fill="none" stroke="#000000" d="M83.6632,-206.5678C114.5275,-197.5629 157.4197,-185.0488 188.708,-175.9202"/>
<polygon fill="none" stroke="#000000" points="83.3092,-206.6711 78.6696,-212.1915 71.7894,-210.0321 76.4289,-204.5117 83.3092,-206.6711"/>
<polygon fill="#000000" stroke="#000000" points="198.4289,-173.0841 190.0895,-180.2048 193.629,-174.4845 188.8291,-175.8849 188.8291,-175.8849 188.8291,-175.8849 193.629,-174.4845 187.5687,-171.565 198.4289,-173.0841 198.4289,-173.0841"/>
<text text-anchor="middle" x="183.3956" y="-183.2749" font-family="Helvetica,sans-Serif" font-size="10.00" fill="#000000">cas*</text>
</g>
<!-- A9 -->
<g id="node10" class="node">
<title>A9</title>
<polygon fill="none" stroke="#000000" points="256.5645,-236 202.5645,-236 202.5645,-200 256.5645,-200 256.5645,-236"/>
<text text-anchor="middle" x="229.5645" y="-215" font-family="Helvetica,sans-Serif" font-size="10.00" fill="#000000">호스트</text>
</g>
<!-- A0&#45;&gt;A9 -->
<g id="edge11" class="edge">
<title>A0&#45;&gt;A9</title>
<path fill="none" stroke="#000000" d="M84.1518,-218C116.2018,-218 160.9832,-218 192.3563,-218"/>
<polygon fill="none" stroke="#000000" points="83.7894,-218.0001 77.7894,-222 71.7894,-218 77.7895,-214 83.7894,-218.0001"/>
<polygon fill="#000000" stroke="#000000" points="202.444,-218 192.4441,-222.5001 197.444,-218 192.444,-218.0001 192.444,-218.0001 192.444,-218.0001 197.444,-218 192.444,-213.5001 202.444,-218 202.444,-218"/>
<text text-anchor="middle" x="184.3179" y="-223.4524" font-family="Helvetica,sans-Serif" font-size="10.00" fill="#000000">hosts*</text>
</g>
<!-- A11 -->
<g id="node12" class="node">
<title>A11</title>
<polygon fill="none" stroke="#000000" points="185.5645,-374 185.5645,-406 273.5645,-406 273.5645,-374 185.5645,-374"/>
<text text-anchor="start" x="195.31" y="-387" font-family="Helvetica,sans-Serif" font-size="10.00" fill="#000000">종류별노드설정</text>
<polygon fill="none" stroke="#000000" points="185.5645,-318 185.5645,-374 273.5645,-374 273.5645,-318 185.5645,-318"/>
<text text-anchor="start" x="199.3635" y="-355" font-family="Helvetica,sans-Serif" font-size="10.00" fill="#000000">블록체인종류</text>
<text text-anchor="start" x="219.4025" y="-343" font-family="Helvetica,sans-Serif" font-size="10.00" fill="#000000">버전</text>
<text text-anchor="start" x="208.567" y="-331" font-family="Helvetica,sans-Serif" font-size="10.00" fill="#000000">서비스타입</text>
</g>
<!-- A0&#45;&gt;A11 -->
<g id="edge14" class="edge">
<title>A0&#45;&gt;A11</title>
<path fill="none" stroke="#000000" d="M71.8222,-247.7537C89.8818,-266.5118 114.6274,-290.5812 138.959,-309 150.6466,-317.8474 163.9347,-326.3675 176.6637,-333.8925"/>
<polygon fill="#000000" stroke="#000000" points="185.3602,-338.9349 174.452,-337.8118 181.0347,-336.4269 176.7092,-333.9188 176.7092,-333.9188 176.7092,-333.9188 181.0347,-336.4269 178.9664,-330.0259 185.3602,-338.9349 185.3602,-338.9349"/>
<text text-anchor="middle" x="165.4396" y="-334.1549" font-family="Helvetica,sans-Serif" font-size="10.00" fill="#000000">커스텀노드설정</text>
</g>
<!-- A2 -->
<g id="node3" class="node">
<title>A2</title>
<polygon fill="none" stroke="#000000" points="444.4628,-136 370.0722,-136 370.0722,-100 444.4628,-100 444.4628,-136"/>
<text text-anchor="middle" x="407.2675" y="-115" font-family="Helvetica,sans-Serif" font-size="10.00" fill="#000000">오더러조직</text>
</g>
<!-- A1&#45;&gt;A2 -->
<g id="edge2" class="edge">
<title>A1&#45;&gt;A2</title>
<path fill="none" stroke="#000000" d="M272.2246,-152.957C298.7405,-146.0932 332.8589,-137.2613 360.1671,-130.1923"/>
<polygon fill="none" stroke="#000000" points="272.1351,-152.9801 267.329,-158.3561 260.518,-155.9874 265.3241,-150.6114 272.1351,-152.9801"/>
<polygon fill="#000000" stroke="#000000" points="369.8933,-127.6747 361.3401,-134.5371 365.0528,-128.9277 360.2124,-130.1807 360.2124,-130.1807 360.2124,-130.1807 365.0528,-128.9277 359.0846,-125.8243 369.8933,-127.6747 369.8933,-127.6747"/>
<text text-anchor="middle" x="354.4637" y="-137.3997" font-family="Helvetica,sans-Serif" font-size="10.00" fill="#000000">order_orgs*</text>
</g>
<!-- A3 -->
<g id="node4" class="node">
<title>A3</title>
<polygon fill="none" stroke="#000000" points="703.8226,-36 632.0244,-36 632.0244,0 703.8226,0 703.8226,-36"/>
<text text-anchor="middle" x="667.9235" y="-15" font-family="Helvetica,sans-Serif" font-size="10.00" fill="#000000">피어조직</text>
</g>
<!-- A1&#45;&gt;A3 -->
<g id="edge3" class="edge">
<title>A1&#45;&gt;A3</title>
<path fill="none" stroke="#000000" d="M268.2935,-139.6524C318.346,-109.5753 409.2032,-59.6175 494.365,-37 536.6275,-25.7758 586.3722,-21.1682 621.7461,-19.2843"/>
<polygon fill="none" stroke="#000000" points="268.2093,-139.7036 265.1579,-146.2372 257.9531,-145.9334 261.0046,-139.3998 268.2093,-139.7036"/>
<polygon fill="#000000" stroke="#000000" points="631.7805,-18.8023 622.0079,-23.777 626.7862,-19.0422 621.792,-19.2822 621.792,-19.2822 621.792,-19.2822 626.7862,-19.0422 621.576,-14.7874 631.7805,-18.8023 631.7805,-18.8023"/>
<text text-anchor="middle" x="614.0807" y="-25.1146" font-family="Helvetica,sans-Serif" font-size="10.00" fill="#000000">peer_orgs*</text>
</g>
<!-- A4 -->
<g id="node5" class="node">
<title>A4</title>
<polygon fill="none" stroke="#000000" points="567.9121,-282 508.4269,-282 508.4269,-246 567.9121,-246 567.9121,-282"/>
<text text-anchor="middle" x="538.1695" y="-261" font-family="Helvetica,sans-Serif" font-size="10.00" fill="#000000">CA노드</text>
</g>
<!-- A1&#45;&gt;A4 -->
<g id="edge4" class="edge">
<title>A1&#45;&gt;A4</title>
<path fill="none" stroke="#000000" d="M272.318,-171.7609C288.1448,-175.8806 305.7342,-182.0151 320.17,-191 347.9389,-208.2834 340.9822,-230.2386 370.17,-245 410.3404,-265.3157 462.6732,-268.1092 498.1798,-267.0836"/>
<polygon fill="none" stroke="#000000" points="272.3159,-171.7605 265.5543,-174.2669 260.6402,-168.9895 267.4017,-166.4831 272.3159,-171.7605"/>
<polygon fill="#000000" stroke="#000000" points="508.1749,-266.6813 498.3639,-271.5799 503.1789,-266.8824 498.183,-267.0835 498.183,-267.0835 498.183,-267.0835 503.1789,-266.8824 498.002,-262.5872 508.1749,-266.6813 508.1749,-266.6813"/>
<text text-anchor="middle" x="490.4032" y="-272.8557" font-family="Helvetica,sans-Serif" font-size="10.00" fill="#000000">ca_nodes*</text>
</g>
<!-- A5 -->
<g id="node6" class="node">
<title>A5</title>
<polygon fill="none" stroke="#000000" points="569.0819,-190 507.2571,-190 507.2571,-154 569.0819,-154 569.0819,-190"/>
<text text-anchor="middle" x="538.1695" y="-169" font-family="Helvetica,sans-Serif" font-size="10.00" fill="#000000">CLI노드</text>
</g>
<!-- A1&#45;&gt;A5 -->
<g id="edge5" class="edge">
<title>A1&#45;&gt;A5</title>
<path fill="none" stroke="#000000" d="M260.5677,-164.8037C316.4849,-166.2532 434.2216,-169.3053 496.8867,-170.9298"/>
<polygon fill="#000000" stroke="#000000" points="507.1869,-171.1968 497.0736,-175.4361 502.1886,-171.0672 497.1903,-170.9376 497.1903,-170.9376 497.1903,-170.9376 502.1886,-171.0672 497.3069,-166.4391 507.1869,-171.1968 507.1869,-171.1968"/>
<text text-anchor="middle" x="488.8478" y="-176.1766" font-family="Helvetica,sans-Serif" font-size="10.00" fill="#000000">cli_node</text>
</g>
<!-- A7 -->
<g id="node8" class="node">
<title>A7</title>
<polygon fill="none" stroke="#000000" points="574.2145,-136 502.1245,-136 502.1245,-100 574.2145,-100 574.2145,-136"/>
<text text-anchor="middle" x="538.1695" y="-115" font-family="Helvetica,sans-Serif" font-size="10.00" fill="#000000">오더러노드</text>
</g>
<!-- A2&#45;&gt;A7 -->
<g id="edge7" class="edge">
<title>A2&#45;&gt;A7</title>
<path fill="none" stroke="#000000" d="M456.6661,-118C468.1453,-118 480.3265,-118 491.6755,-118"/>
<polygon fill="none" stroke="#000000" points="456.4286,-118.0001 450.4286,-122 444.4286,-118 450.4286,-114 456.4286,-118.0001"/>
<polygon fill="#000000" stroke="#000000" points="501.8201,-118 491.8201,-122.5001 496.8201,-118 491.8201,-118.0001 491.8201,-118.0001 491.8201,-118.0001 496.8201,-118 491.8201,-113.5001 501.8201,-118 501.8201,-118"/>
<text text-anchor="middle" x="483.6939" y="-123.4524" font-family="Helvetica,sans-Serif" font-size="10.00" fill="#000000">order_nodes*</text>
</g>
<!-- A8 -->
<g id="node9" class="node">
<title>A8</title>
<polygon fill="none" stroke="#000000" points="565.1695,-82 511.1695,-82 511.1695,-46 565.1695,-46 565.1695,-82"/>
<text text-anchor="middle" x="538.1695" y="-61" font-family="Helvetica,sans-Serif" font-size="10.00" fill="#000000">채널</text>
</g>
<!-- A2&#45;&gt;A8 -->
<g id="edge8" class="edge">
<title>A2&#45;&gt;A8</title>
<path fill="none" stroke="#000000" d="M455.7153,-98.0142C470.8539,-91.7692 487.2966,-84.9862 501.4869,-79.1324"/>
<polygon fill="none" stroke="#000000" points="455.5218,-98.094 451.5006,-104.0798 444.4286,-102.6702 448.4498,-96.6844 455.5218,-98.094"/>
<polygon fill="#000000" stroke="#000000" points="510.9074,-75.2462 503.3792,-83.2197 506.2852,-77.153 501.6631,-79.0598 501.6631,-79.0598 501.6631,-79.0598 506.2852,-77.153 499.947,-74.8998 510.9074,-75.2462 510.9074,-75.2462"/>
<text text-anchor="middle" x="497.3743" y="-86.9722" font-family="Helvetica,sans-Serif" font-size="10.00" fill="#000000">channels*</text>
</g>
<!-- A6 -->
<g id="node7" class="node">
<title>A6</title>
<polygon fill="none" stroke="#000000" points="823.497,-82 753.998,-82 753.998,-46 823.497,-46 823.497,-82"/>
<text text-anchor="middle" x="788.7475" y="-61" font-family="Helvetica,sans-Serif" font-size="10.00" fill="#000000">피어노드</text>
</g>
<!-- A3&#45;&gt;A6 -->
<g id="edge6" class="edge">
<title>A3&#45;&gt;A6</title>
<path fill="none" stroke="#000000" d="M715.2705,-36.0259C724.7441,-39.6327 734.6679,-43.4109 744.0486,-46.9823"/>
<polygon fill="none" stroke="#000000" points="715.0623,-35.9467 708.0317,-37.5501 703.8476,-31.677 710.8782,-30.0736 715.0623,-35.9467"/>
<polygon fill="#000000" stroke="#000000" points="753.5859,-50.6133 742.6391,-51.2607 748.9131,-48.8342 744.2403,-47.0552 744.2403,-47.0552 744.2403,-47.0552 748.9131,-48.8342 745.8414,-42.8497 753.5859,-50.6133 753.5859,-50.6133"/>
<text text-anchor="middle" x="733.6385" y="-49.0632" font-family="Helvetica,sans-Serif" font-size="10.00" fill="#000000">peer_nodes*</text>
</g>
<!-- A8&#45;&gt;A3 -->
<g id="edge9" class="edge">
<title>A8&#45;&gt;A3</title>
<path fill="none" stroke="#000000" d="M576.8795,-50.2767C591.1833,-45.2057 607.5258,-39.412 622.3801,-34.1459"/>
<polygon fill="none" stroke="#000000" points="576.6805,-50.3471 572.3619,-56.1221 565.3702,-54.3569 569.6887,-48.5819 576.6805,-50.3471"/>
<polygon fill="#000000" stroke="#000000" points="631.8902,-30.7744 623.9686,-38.3572 627.1776,-32.4452 622.465,-34.1159 622.465,-34.1159 622.465,-34.1159 627.1776,-32.4452 620.9613,-29.8745 631.8902,-30.7744 631.8902,-30.7744"/>
<text text-anchor="middle" x="617.6301" y="-41.7977" font-family="Helvetica,sans-Serif" font-size="10.00" fill="#000000">orgs*</text>
</g>
<!-- A8&#45;&gt;A6 -->
<g id="edge10" class="edge">
<title>A8&#45;&gt;A6</title>
<path fill="none" stroke="#000000" d="M577.6202,-64C622.6934,-64 696.3116,-64 743.6277,-64"/>
<polygon fill="none" stroke="#000000" points="577.4627,-64.0001 571.4627,-68 565.4627,-64 571.4628,-60 577.4627,-64.0001"/>
<polygon fill="#000000" stroke="#000000" points="753.8882,-64 743.8882,-68.5001 748.8882,-64 743.8882,-64.0001 743.8882,-64.0001 743.8882,-64.0001 748.8882,-64 743.8882,-59.5001 753.8882,-64 753.8882,-64"/>
<text text-anchor="middle" x="735.762" y="-69.4524" font-family="Helvetica,sans-Serif" font-size="10.00" fill="#000000">peer_nodes*</text>
</g>
<!-- A10 -->
<g id="node11" class="node">
<title>A10</title>
<polygon fill="none" stroke="#000000" points="434.2675,-236 380.2675,-236 380.2675,-200 434.2675,-200 434.2675,-236"/>
<text text-anchor="middle" x="407.2675" y="-215" font-family="Helvetica,sans-Serif" font-size="10.00" fill="#000000">노드</text>
</g>
<!-- A9&#45;&gt;A10 -->
<g id="edge12" class="edge">
<title>A9&#45;&gt;A10</title>
<path fill="none" stroke="#000000" d="M269.1362,-218C299.2102,-218 340.3011,-218 369.8351,-218"/>
<polygon fill="none" stroke="#000000" points="268.9412,-218.0001 262.9411,-222 256.9412,-218 262.9412,-214 268.9412,-218.0001"/>
<polygon fill="#000000" stroke="#000000" points="380.1514,-218 370.1514,-222.5001 375.1514,-218 370.1514,-218.0001 370.1514,-218.0001 370.1514,-218.0001 375.1514,-218 370.1513,-213.5001 380.1514,-218 380.1514,-218"/>
<text text-anchor="middle" x="362.0252" y="-223.4524" font-family="Helvetica,sans-Serif" font-size="10.00" fill="#000000">nodes*</text>
</g>
<!-- A10&#45;&gt;A4 -->
<g id="edge23" class="edge">
<title>A10&#45;&gt;A4</title>
<path fill="none" stroke="#000000" d="M443.952,-230.8912C464.2787,-238.0342 489.2264,-246.801 508.343,-253.5187"/>
<polygon fill="none" stroke="#000000" points="444.9853,-227.5446 434.3905,-227.5312 442.6645,-234.1487 444.9853,-227.5446"/>
</g>
<!-- A10&#45;&gt;A5 -->
<g id="edge24" class="edge">
<title>A10&#45;&gt;A5</title>
<path fill="none" stroke="#000000" d="M444.0868,-205.0614C464.0601,-198.0426 488.4639,-189.4669 507.4116,-182.8086"/>
<polygon fill="none" stroke="#000000" points="442.6645,-201.8513 434.3905,-208.4688 444.9853,-208.4554 442.6645,-201.8513"/>
</g>
<!-- A10&#45;&gt;A6 -->
<g id="edge22" class="edge">
<title>A10&#45;&gt;A6</title>
<path fill="none" stroke="#000000" d="M444.5775,-218.913C480.734,-218.6588 536.6076,-215.2198 581.974,-199 657.6664,-171.9378 733.4032,-112.0979 768.5148,-82.0117"/>
<polygon fill="none" stroke="#000000" points="444.4787,-215.413 434.4757,-218.9044 444.4726,-222.413 444.4787,-215.413"/>
</g>
<!-- A10&#45;&gt;A7 -->
<g id="edge21" class="edge">
<title>A10&#45;&gt;A7</title>
<path fill="none" stroke="#000000" d="M435.1028,-192.8903C451.8015,-178.2842 473.7393,-159.8802 494.365,-145 498.567,-141.9685 503.1136,-138.9247 507.6327,-136.0298"/>
<polygon fill="none" stroke="#000000" points="432.5397,-190.484 427.3547,-199.7234 437.1698,-195.734 432.5397,-190.484"/>
</g>
<!-- A13 -->
<g id="node14" class="node">
<title>A13</title>
<polygon fill="none" stroke="#000000" points="438.1869,-390 376.3481,-390 376.3481,-354 438.1869,-354 438.1869,-390"/>
<text text-anchor="middle" x="407.2675" y="-369" font-family="Helvetica,sans-Serif" font-size="10.00" fill="#000000">노드설정</text>
</g>
<!-- A11&#45;&gt;A13 -->
<g id="edge15" class="edge">
<title>A11&#45;&gt;A13</title>
<path fill="none" stroke="#000000" d="M285.9747,-365.1744C312.0976,-366.6444 342.5574,-368.3585 366.4177,-369.7012"/>
<polygon fill="none" stroke="#000000" points="285.9291,-365.1719 279.7138,-368.8285 273.9481,-364.4976 280.1634,-360.8411 285.9291,-365.1719"/>
<polygon fill="#000000" stroke="#000000" points="376.5414,-370.2709 366.3043,-374.2019 371.5493,-369.99 366.5572,-369.709 366.5572,-369.709 366.5572,-369.709 371.5493,-369.99 366.8101,-365.2161 376.5414,-370.2709 376.5414,-370.2709"/>
<text text-anchor="middle" x="357.969" y="-374.6915" font-family="Helvetica,sans-Serif" font-size="10.00" fill="#000000">버전노드설정들*</text>
</g>
<!-- A14 -->
<g id="node15" class="node">
<title>A14</title>
<polygon fill="#f5deb3" stroke="#000000" points="314.2756,-300 138.8534,-300 138.8534,-264 320.2756,-264 320.2756,-294 314.2756,-300"/>
<polyline fill="none" stroke="#000000" points="314.2756,-300 314.2756,-294 "/>
<polyline fill="none" stroke="#000000" points="320.2756,-294 314.2756,-294 "/>
<text text-anchor="middle" x="229.5645" y="-279" font-family="Helvetica,sans-Serif" font-size="10.00" fill="#000000">수정가능한 것은 복사해서 바꿈</text>
</g>
<!-- A11&#45;&gt;A14 -->
<g id="edge16" class="edge">
<title>A11&#45;&gt;A14</title>
<path fill="none" stroke="#000000" stroke-dasharray="5,2" d="M229.5645,-317.5273C229.5645,-311.7266 229.5645,-305.9258 229.5645,-300.125"/>
</g>
<!-- A12 -->
<g id="node13" class="node">
<title>A12</title>
<polygon fill="none" stroke="#000000" points="88.9385,-380 .0205,-380 .0205,-344 88.9385,-344 88.9385,-380"/>
<text text-anchor="middle" x="44.4795" y="-359" font-family="Helvetica,sans-Serif" font-size="10.00" fill="#000000">노드설정리스트</text>
</g>
<!-- A12&#45;&gt;A11 -->
<g id="edge13" class="edge">
<title>A12&#45;&gt;A11</title>
<path fill="none" stroke="#000000" d="M101.3416,-362C124.9227,-362 152.1537,-362 175.4392,-362"/>
<polygon fill="none" stroke="#000000" points="101.2834,-362.0001 95.2834,-366 89.2834,-362 95.2834,-358 101.2834,-362.0001"/>
<polygon fill="#000000" stroke="#000000" points="185.4929,-362 175.4929,-366.5001 180.4929,-362 175.4929,-362.0001 175.4929,-362.0001 175.4929,-362.0001 180.4929,-362 175.4928,-357.5001 185.4929,-362 185.4929,-362"/>
<text text-anchor="middle" x="167.3667" y="-367.4524" font-family="Helvetica,sans-Serif" font-size="10.00" fill="#000000">노드설정들*</text>
</g>
<!-- A15 -->
<g id="node16" class="node">
<title>A15</title>
<polygon fill="none" stroke="#000000" points="575.9761,-444 500.3629,-444 500.3629,-408 575.9761,-408 575.9761,-444"/>
<text text-anchor="middle" x="538.1695" y="-423" font-family="Helvetica,sans-Serif" font-size="10.00" fill="#000000">CA노드설정</text>
</g>
<!-- A13&#45;&gt;A15 -->
<g id="edge17" class="edge">
<title>A13&#45;&gt;A15</title>
<path fill="none" stroke="#000000" d="M447.8212,-388.7293C464.5821,-395.6436 483.9029,-403.6138 500.3649,-410.4047"/>
<polygon fill="none" stroke="#000000" points="448.8685,-385.3753 438.2894,-384.7972 446.199,-391.8463 448.8685,-385.3753"/>
</g>
<!-- A16 -->
<g id="node17" class="node">
<title>A16</title>
<polygon fill="none" stroke="#000000" points="581.7794,-390 494.5596,-390 494.5596,-354 581.7794,-354 581.7794,-390"/>
<text text-anchor="middle" x="538.1695" y="-369" font-family="Helvetica,sans-Serif" font-size="10.00" fill="#000000">오더러노드설정</text>
</g>
<!-- A13&#45;&gt;A16 -->
<g id="edge18" class="edge">
<title>A13&#45;&gt;A16</title>
<path fill="none" stroke="#000000" d="M448.5564,-372C463.1805,-372 479.6767,-372 494.4929,-372"/>
<polygon fill="none" stroke="#000000" points="448.2895,-368.5001 438.2894,-372 448.2894,-375.5001 448.2895,-368.5001"/>
</g>
<!-- A17 -->
<g id="node18" class="node">
<title>A17</title>
<polygon fill="none" stroke="#000000" points="580.9831,-336 495.3559,-336 495.3559,-300 580.9831,-300 580.9831,-336"/>
<text text-anchor="middle" x="538.1695" y="-315" font-family="Helvetica,sans-Serif" font-size="10.00" fill="#000000">피어노드설정</text>
</g>
<!-- A13&#45;&gt;A17 -->
<g id="edge19" class="edge">
<title>A13&#45;&gt;A17</title>
<path fill="none" stroke="#000000" d="M447.8824,-355.2455C462.9984,-349.0098 480.1895,-341.918 495.4856,-335.6081"/>
<polygon fill="none" stroke="#000000" points="446.199,-352.1537 438.2894,-359.2028 448.8685,-358.6247 446.199,-352.1537"/>
</g>
<!-- A18 -->
<g id="node19" class="node">
<title>A18</title>
<polygon fill="none" stroke="#000000" points="576.6445,-498 499.6945,-498 499.6945,-462 576.6445,-462 576.6445,-498"/>
<text text-anchor="middle" x="538.1695" y="-477" font-family="Helvetica,sans-Serif" font-size="10.00" fill="#000000">CLI노드설정</text>
</g>
<!-- A13&#45;&gt;A18 -->
<g id="edge20" class="edge">
<title>A13&#45;&gt;A18</title>
<path fill="none" stroke="#000000" d="M431.9552,-397.4391C448.7859,-414.1428 471.9968,-435.9689 494.365,-453 498.3453,-456.0306 502.6804,-459.0273 507.0245,-461.86"/>
<polygon fill="none" stroke="#000000" points="434.2366,-394.7702 424.6971,-390.1605 429.2799,-399.713 434.2366,-394.7702"/>
</g>
<!-- A19 -->
<g id="node20" class="node">
<title>A19</title>
<polygon fill="none" stroke="#000000" points="71.4795,-136 17.4795,-136 17.4795,-100 71.4795,-100 71.4795,-136"/>
<text text-anchor="middle" x="44.4795" y="-115" font-family="Helvetica,sans-Serif" font-size="10.00" fill="#000000">조직</text>
</g>
<!-- A19&#45;&gt;A1 -->
<g id="edge27" class="edge">
<title>A19&#45;&gt;A1</title>
<path fill="none" stroke="#000000" d="M81.8768,-127.2945C116.144,-135.8111 166.2905,-148.2742 198.4289,-156.2617"/>
<polygon fill="none" stroke="#000000" points="82.3384,-123.8028 71.7894,-124.7875 80.65,-130.5962 82.3384,-123.8028"/>
</g>
<!-- A19&#45;&gt;A2 -->
<g id="edge25" class="edge">
<title>A19&#45;&gt;A2</title>
<path fill="none" stroke="#000000" d="M81.8323,-118C151.5305,-118 300.6175,-118 370.1425,-118"/>
<polygon fill="none" stroke="#000000" points="81.7476,-114.5001 71.7476,-118 81.7475,-121.5001 81.7476,-114.5001"/>
</g>
<!-- A19&#45;&gt;A3 -->
<g id="edge26" class="edge">
<title>A19&#45;&gt;A3</title>
<path fill="none" stroke="#000000" d="M81.1391,-107.1647C157.2746,-85.2797 338.4319,-36.4089 494.365,-19 541.6799,-13.7176 596.7024,-14.5748 631.8953,-16.0051"/>
<polygon fill="none" stroke="#000000" points="80.1646,-103.803 71.531,-109.944 82.1098,-110.5273 80.1646,-103.803"/>
</g>
</g>
</svg>
