<?xml version="1.0" encoding="UTF-8" standalone="no"?>
<!DOCTYPE svg PUBLIC "-//W3C//DTD SVG 1.1//EN"
 "http://www.w3.org/Graphics/SVG/1.1/DTD/svg11.dtd">
<!-- Generated by graphviz version 2.40.1 (20161225.0304)
 -->
<!-- Title: G Pages: 1 -->
<svg width="860pt" height="515pt"
 viewBox="0.00 0.00 860.01 515.00" xmlns="http://www.w3.org/2000/svg" xmlns:xlink="http://www.w3.org/1999/xlink">
<g id="graph0" class="graph" transform="scale(1 1) rotate(0) translate(4 511)">
<title>G</title>
<polygon fill="#ffffff" stroke="transparent" points="-4,4 -4,-511 856.013,-511 856.013,4 -4,4"/>
<!-- A0 -->
<g id="node1" class="node">
<title>A0</title>
<polygon fill="none" stroke="#000000" points="34.158,-328 34.158,-360 87.158,-360 87.158,-328 34.158,-328"/>
<text text-anchor="start" x="44.109" y="-341" font-family="Helvetica,sans-Serif" font-size="10.00" fill="#000000">네트워크</text>
<polygon fill="none" stroke="#000000" points="34.158,-296 34.158,-328 87.158,-328 87.158,-296 34.158,-296"/>
<text text-anchor="start" x="53.9945" y="-309" font-family="Helvetica,sans-Serif" font-size="10.00" fill="#000000">&#45;ID</text>
</g>
<!-- A1 -->
<g id="node2" class="node">
<title>A1</title>
<polygon fill="none" stroke="#000000" points="231.3205,-461 177.3205,-461 177.3205,-425 231.3205,-425 231.3205,-461"/>
<text text-anchor="middle" x="204.3205" y="-440" font-family="Helvetica,sans-Serif" font-size="10.00" fill="#000000">조직</text>
</g>
<!-- A0&#45;&gt;A1 -->
<g id="edge3" class="edge">
<title>A0&#45;&gt;A1</title>
<path fill="none" stroke="#000000" d="M97.2561,-352.2237C105.0034,-357.5752 113.0275,-363.341 120.316,-369 140.2373,-384.4673 161.547,-403.2678 177.7189,-418.0481"/>
<polygon fill="none" stroke="#000000" points="97.2422,-352.2143 90.0314,-352.1515 87.316,-345.4711 94.5269,-345.534 97.2422,-352.2143"/>
<polygon fill="#000000" stroke="#000000" points="185.2165,-424.9488 174.8111,-421.4877 181.5375,-421.5627 177.8585,-418.1767 177.8585,-418.1767 177.8585,-418.1767 181.5375,-421.5627 180.906,-414.8656 185.2165,-424.9488 185.2165,-424.9488"/>
<text text-anchor="middle" x="166.1554" y="-415.8928" font-family="Helvetica,sans-Serif" font-size="10.00" fill="#000000">*</text>
</g>
<!-- A6 -->
<g id="node7" class="node">
<title>A6</title>
<polygon fill="none" stroke="#000000" points="231.3205,-346 177.3205,-346 177.3205,-310 231.3205,-310 231.3205,-346"/>
<text text-anchor="middle" x="204.3205" y="-325" font-family="Helvetica,sans-Serif" font-size="10.00" fill="#000000">호스트</text>
</g>
<!-- A0&#45;&gt;A6 -->
<g id="edge8" class="edge">
<title>A0&#45;&gt;A6</title>
<path fill="none" stroke="#000000" d="M99.4301,-328C120.4114,-328 146.1073,-328 166.8146,-328"/>
<polygon fill="none" stroke="#000000" points="99.2739,-328.0001 93.2738,-332 87.2739,-328 93.2739,-324 99.2739,-328.0001"/>
<polygon fill="#000000" stroke="#000000" points="176.8361,-328 166.8361,-332.5001 171.8361,-328 166.8361,-328.0001 166.8361,-328.0001 166.8361,-328.0001 171.8361,-328 166.836,-323.5001 176.8361,-328 176.8361,-328"/>
<text text-anchor="middle" x="158.7099" y="-333.4524" font-family="Helvetica,sans-Serif" font-size="10.00" fill="#000000">hosts*</text>
</g>
<!-- A9 -->
<g id="node10" class="node">
<title>A9</title>
<polygon fill="none" stroke="#000000" points="238.3295,-224 170.3115,-224 170.3115,-188 238.3295,-188 238.3295,-224"/>
<text text-anchor="middle" x="204.3205" y="-203" font-family="Helvetica,sans-Serif" font-size="10.00" fill="#000000">카피설정</text>
</g>
<!-- A0&#45;&gt;A9 -->
<g id="edge10" class="edge">
<title>A0&#45;&gt;A9</title>
<path fill="none" stroke="#000000" d="M87.2739,-305.0527C112.2972,-283.8763 149.3582,-252.5128 175.0459,-230.7742"/>
<polygon fill="#000000" stroke="#000000" points="182.9567,-224.0795 178.2302,-233.9745 179.14,-227.3095 175.3232,-230.5394 175.3232,-230.5394 175.3232,-230.5394 179.14,-227.3095 172.4163,-227.1044 182.9567,-224.0795 182.9567,-224.0795"/>
<text text-anchor="middle" x="174.5804" y="-239.2409" font-family="Helvetica,sans-Serif" font-size="10.00" fill="#000000">커스텀노드설정</text>
</g>
<!-- A2 -->
<g id="node3" class="node">
<title>A2</title>
<polygon fill="none" stroke="#000000" points="397.6583,-507 323.2677,-507 323.2677,-471 397.6583,-471 397.6583,-507"/>
<text text-anchor="middle" x="360.463" y="-486" font-family="Helvetica,sans-Serif" font-size="10.00" fill="#000000">오더러조직</text>
</g>
<!-- A1&#45;&gt;A2 -->
<g id="edge1" class="edge">
<title>A1&#45;&gt;A2</title>
<path fill="none" stroke="#000000" d="M241.2759,-453.8871C266.0445,-461.1841 298.5388,-470.757 323.3419,-478.064"/>
<polygon fill="none" stroke="#000000" points="242.1,-450.4813 231.5184,-451.0126 240.1217,-457.1959 242.1,-450.4813"/>
</g>
<!-- A3 -->
<g id="node4" class="node">
<title>A3</title>
<polygon fill="none" stroke="#000000" points="724.3586,-465 652.5604,-465 652.5604,-429 724.3586,-429 724.3586,-465"/>
<text text-anchor="middle" x="688.4595" y="-444" font-family="Helvetica,sans-Serif" font-size="10.00" fill="#000000">피어조직</text>
</g>
<!-- A1&#45;&gt;A3 -->
<g id="edge2" class="edge">
<title>A1&#45;&gt;A3</title>
<path fill="none" stroke="#000000" d="M241.4573,-443.3068C331.9447,-444.0544 562.94,-445.9629 652.3518,-446.7017"/>
<polygon fill="none" stroke="#000000" points="241.4159,-439.8065 231.3873,-443.2236 241.358,-446.8062 241.4159,-439.8065"/>
</g>
<!-- A5 -->
<g id="node6" class="node">
<title>A5</title>
<polygon fill="none" stroke="#000000" points="565.628,-507 511.628,-507 511.628,-471 565.628,-471 565.628,-507"/>
<text text-anchor="middle" x="538.628" y="-486" font-family="Helvetica,sans-Serif" font-size="10.00" fill="#000000">채널</text>
</g>
<!-- A2&#45;&gt;A5 -->
<g id="edge5" class="edge">
<title>A2&#45;&gt;A5</title>
<path fill="none" stroke="#000000" d="M409.9014,-489C438.8804,-489 474.891,-489 501.4494,-489"/>
<polygon fill="none" stroke="#000000" points="409.8122,-489.0001 403.8122,-493 397.8122,-489 403.8123,-485 409.8122,-489.0001"/>
<polygon fill="#000000" stroke="#000000" points="511.4876,-489 501.4876,-493.5001 506.4876,-489 501.4876,-489.0001 501.4876,-489.0001 501.4876,-489.0001 506.4876,-489 501.4875,-484.5001 511.4876,-489 511.4876,-489"/>
<text text-anchor="middle" x="493.3614" y="-494.4524" font-family="Helvetica,sans-Serif" font-size="10.00" fill="#000000">channels*</text>
</g>
<!-- A4 -->
<g id="node5" class="node">
<title>A4</title>
<polygon fill="none" stroke="#000000" points="851.888,-465 782.389,-465 782.389,-429 851.888,-429 851.888,-465"/>
<text text-anchor="middle" x="817.1385" y="-444" font-family="Helvetica,sans-Serif" font-size="10.00" fill="#000000">피어노드</text>
</g>
<!-- A3&#45;&gt;A4 -->
<g id="edge4" class="edge">
<title>A3&#45;&gt;A4</title>
<path fill="none" stroke="#000000" d="M736.8985,-447C748.4019,-447 760.6287,-447 771.9791,-447"/>
<polygon fill="none" stroke="#000000" points="736.6462,-447.0001 730.6462,-451 724.6462,-447 730.6462,-443 736.6462,-447.0001"/>
<polygon fill="#000000" stroke="#000000" points="782.1105,-447 772.1106,-451.5001 777.1105,-447 772.1105,-447.0001 772.1105,-447.0001 772.1105,-447.0001 777.1105,-447 772.1105,-442.5001 782.1105,-447 782.1105,-447"/>
<text text-anchor="middle" x="763.9844" y="-452.4524" font-family="Helvetica,sans-Serif" font-size="10.00" fill="#000000">*</text>
</g>
<!-- A5&#45;&gt;A3 -->
<g id="edge6" class="edge">
<title>A5&#45;&gt;A3</title>
<path fill="none" stroke="#000000" d="M577.5891,-478.0786C597.4849,-472.5015 621.8158,-465.6812 642.6104,-459.8522"/>
<polygon fill="none" stroke="#000000" points="577.316,-478.1551 572.6183,-483.6262 565.7614,-481.3941 570.459,-475.9231 577.316,-478.1551"/>
<polygon fill="#000000" stroke="#000000" points="652.4997,-457.0801 644.0854,-464.1122 647.6852,-458.4297 642.8708,-459.7793 642.8708,-459.7793 642.8708,-459.7793 647.6852,-458.4297 641.6562,-455.4463 652.4997,-457.0801 652.4997,-457.0801"/>
<text text-anchor="middle" x="637.3276" y="-467.1112" font-family="Helvetica,sans-Serif" font-size="10.00" fill="#000000">peer_nodes*</text>
</g>
<!-- A5&#45;&gt;A4 -->
<g id="edge7" class="edge">
<title>A5&#45;&gt;A4</title>
<path fill="none" stroke="#000000" d="M578.0236,-488.5995C617.4037,-487.5803 679.5219,-484.2885 732.264,-474 745.5673,-471.4049 759.7113,-467.4214 772.5604,-463.3046"/>
<polygon fill="none" stroke="#000000" points="577.8294,-488.6036 571.9165,-492.7313 565.8322,-488.8608 571.7451,-484.7331 577.8294,-488.6036"/>
<polygon fill="#000000" stroke="#000000" points="782.0985,-460.1512 774.0165,-467.5628 777.3512,-461.7207 772.6039,-463.2903 772.6039,-463.2903 772.6039,-463.2903 777.3512,-461.7207 771.1914,-459.0177 782.0985,-460.1512 782.0985,-460.1512"/>
<text text-anchor="middle" x="767.5417" y="-470.8661" font-family="Helvetica,sans-Serif" font-size="10.00" fill="#000000">peer_nodes*</text>
</g>
<!-- A7 -->
<g id="node8" class="node">
<title>A7</title>
<polygon fill="none" stroke="#000000" points="387.463,-346 333.463,-346 333.463,-310 387.463,-310 387.463,-346"/>
<text text-anchor="middle" x="360.463" y="-325" font-family="Helvetica,sans-Serif" font-size="10.00" fill="#000000">노드</text>
</g>
<!-- A6&#45;&gt;A7 -->
<g id="edge9" class="edge">
<title>A6&#45;&gt;A7</title>
<path fill="none" stroke="#000000" d="M243.679,-328C268.0633,-328 299.1936,-328 323.1806,-328"/>
<polygon fill="none" stroke="#000000" points="243.5184,-328.0001 237.5184,-332 231.5184,-328 237.5185,-324 243.5184,-328.0001"/>
<polygon fill="#000000" stroke="#000000" points="333.3152,-328 323.3153,-332.5001 328.3152,-328 323.3152,-328.0001 323.3152,-328.0001 323.3152,-328.0001 328.3152,-328 323.3152,-323.5001 333.3152,-328 333.3152,-328"/>
<text text-anchor="middle" x="315.1891" y="-333.4524" font-family="Helvetica,sans-Serif" font-size="10.00" fill="#000000">nodes*</text>
</g>
<!-- A7&#45;&gt;A4 -->
<g id="edge22" class="edge">
<title>A7&#45;&gt;A4</title>
<path fill="none" stroke="#000000" d="M396.8201,-347.1295C420.6194,-358.877 452.7336,-373.2929 482.601,-382 590.3548,-413.4131 622.9681,-394.4645 732.264,-420 748.9776,-423.9049 767.1541,-429.4996 782.3826,-434.5846"/>
<polygon fill="none" stroke="#000000" points="398.315,-343.9638 387.8068,-342.6119 395.1784,-350.2217 398.315,-343.9638"/>
</g>
<!-- A19 -->
<g id="node20" class="node">
<title>A19</title>
<polygon fill="none" stroke="#000000" points="574.673,-373 502.583,-373 502.583,-337 574.673,-337 574.673,-373"/>
<text text-anchor="middle" x="538.628" y="-352" font-family="Helvetica,sans-Serif" font-size="10.00" fill="#000000">오더러노드</text>
</g>
<!-- A7&#45;&gt;A19 -->
<g id="edge21" class="edge">
<title>A7&#45;&gt;A19</title>
<path fill="none" stroke="#000000" d="M397.4304,-333.6022C428.2027,-338.2656 471.7715,-344.8682 502.3505,-349.5023"/>
<polygon fill="none" stroke="#000000" points="397.934,-330.1387 387.5224,-332.1007 396.8851,-337.0596 397.934,-330.1387"/>
</g>
<!-- A20 -->
<g id="node21" class="node">
<title>A20</title>
<polygon fill="none" stroke="#000000" points="568.3706,-319 508.8854,-319 508.8854,-283 568.3706,-283 568.3706,-319"/>
<text text-anchor="middle" x="538.628" y="-298" font-family="Helvetica,sans-Serif" font-size="10.00" fill="#000000">CA노드</text>
</g>
<!-- A7&#45;&gt;A20 -->
<g id="edge23" class="edge">
<title>A7&#45;&gt;A20</title>
<path fill="none" stroke="#000000" d="M397.6664,-322.362C430.6044,-317.3704 478.0665,-310.1778 508.6298,-305.5461"/>
<polygon fill="none" stroke="#000000" points="396.8851,-318.9404 387.5224,-323.8993 397.934,-325.8613 396.8851,-318.9404"/>
</g>
<!-- A21 -->
<g id="node22" class="node">
<title>A21</title>
<polygon fill="none" stroke="#000000" points="569.5404,-265 507.7156,-265 507.7156,-229 569.5404,-229 569.5404,-265"/>
<text text-anchor="middle" x="538.628" y="-244" font-family="Helvetica,sans-Serif" font-size="10.00" fill="#000000">CLI노드</text>
</g>
<!-- A7&#45;&gt;A21 -->
<g id="edge24" class="edge">
<title>A7&#45;&gt;A21</title>
<path fill="none" stroke="#000000" d="M396.7268,-311.5132C429.3723,-296.6715 476.8308,-275.0952 507.7149,-261.0542"/>
<polygon fill="none" stroke="#000000" points="395.1772,-308.3729 387.5224,-315.6978 398.0744,-314.7453 395.1772,-308.3729"/>
</g>
<!-- A8 -->
<g id="node9" class="node">
<title>A8</title>
<polygon fill="none" stroke="#000000" points="320.463,-218 320.463,-250 400.463,-250 400.463,-218 320.463,-218"/>
<text text-anchor="start" x="352.681" y="-231" font-family="Helvetica,sans-Serif" font-size="10.00" fill="#000000">설정</text>
<polygon fill="none" stroke="#000000" points="320.463,-162 320.463,-218 400.463,-218 400.463,-162 320.463,-162"/>
<text text-anchor="start" x="330.262" y="-199" font-family="Helvetica,sans-Serif" font-size="10.00" fill="#000000">블록체인종류</text>
<text text-anchor="start" x="350.301" y="-187" font-family="Helvetica,sans-Serif" font-size="10.00" fill="#000000">버전</text>
<text text-anchor="start" x="339.4655" y="-175" font-family="Helvetica,sans-Serif" font-size="10.00" fill="#000000">서비스타입</text>
</g>
<!-- A11 -->
<g id="node12" class="node">
<title>A11</title>
<polygon fill="none" stroke="#000000" points="569.5474,-211 507.7086,-211 507.7086,-175 569.5474,-175 569.5474,-211"/>
<text text-anchor="middle" x="538.628" y="-190" font-family="Helvetica,sans-Serif" font-size="10.00" fill="#000000">노드설정</text>
</g>
<!-- A8&#45;&gt;A11 -->
<g id="edge13" class="edge">
<title>A8&#45;&gt;A11</title>
<path fill="none" stroke="#000000" d="M413.1746,-202.1538C440.1257,-200.1873 472.4391,-197.8295 497.5211,-195.9994"/>
<polygon fill="none" stroke="#000000" points="412.8596,-202.1767 407.1666,-206.6028 400.8914,-203.0501 406.5844,-198.624 412.8596,-202.1767"/>
<polygon fill="#000000" stroke="#000000" points="507.7911,-195.25 498.1451,-200.4659 502.8043,-195.614 497.8176,-195.9779 497.8176,-195.9779 497.8176,-195.9779 502.8043,-195.614 497.4901,-191.4898 507.7911,-195.25 507.7911,-195.25"/>
<text text-anchor="middle" x="490.3281" y="-201.9991" font-family="Helvetica,sans-Serif" font-size="10.00" fill="#000000">버전노드설정들*</text>
</g>
<!-- A12 -->
<g id="node13" class="node">
<title>A12</title>
<polygon fill="#f5deb3" stroke="#000000" points="426.7393,-144 288.1867,-144 288.1867,-108 432.7393,-108 432.7393,-138 426.7393,-144"/>
<polyline fill="none" stroke="#000000" points="426.7393,-144 426.7393,-138 "/>
<polyline fill="none" stroke="#000000" points="432.7393,-138 426.7393,-138 "/>
<text text-anchor="middle" x="360.463" y="-123" font-family="Helvetica,sans-Serif" font-size="10.00" fill="#000000">노드부분에 수정사항 추가</text>
</g>
<!-- A8&#45;&gt;A12 -->
<g id="edge14" class="edge">
<title>A8&#45;&gt;A12</title>
<path fill="none" stroke="#000000" stroke-dasharray="5,2" d="M360.463,-161.5273C360.463,-155.7266 360.463,-149.9258 360.463,-144.125"/>
</g>
<!-- A9&#45;&gt;A8 -->
<g id="edge12" class="edge">
<title>A9&#45;&gt;A8</title>
<path fill="none" stroke="#000000" d="M238.5866,-206C259.5441,-206 286.7283,-206 310.1038,-206"/>
<polygon fill="#000000" stroke="#000000" points="320.1985,-206 310.1986,-210.5001 315.1985,-206 310.1985,-206.0001 310.1985,-206.0001 310.1985,-206.0001 315.1985,-206 310.1985,-201.5001 320.1985,-206 320.1985,-206"/>
<text text-anchor="middle" x="302.0724" y="-211.4524" font-family="Helvetica,sans-Serif" font-size="10.00" fill="#000000">커스텀노드설정</text>
</g>
<!-- A10 -->
<g id="node11" class="node">
<title>A10</title>
<polygon fill="none" stroke="#000000" points="403.3261,-90 317.5999,-90 317.5999,-54 403.3261,-54 403.3261,-90"/>
<text text-anchor="middle" x="360.463" y="-69" font-family="Helvetica,sans-Serif" font-size="10.00" fill="#000000">카피노드설정</text>
</g>
<!-- A9&#45;&gt;A10 -->
<g id="edge11" class="edge">
<title>A9&#45;&gt;A10</title>
<path fill="none" stroke="#000000" d="M220.5765,-177.4278C235.4657,-153.5344 259.5301,-120.0689 288.325,-99 294.2606,-94.657 300.9755,-90.9338 307.8609,-87.7647"/>
<polygon fill="none" stroke="#000000" points="220.4126,-177.6994 220.7359,-184.9033 214.2105,-187.9724 213.8872,-180.7686 220.4126,-177.6994"/>
<polygon fill="#000000" stroke="#000000" points="317.2985,-83.7803 309.8361,-91.8154 312.6922,-85.725 308.0858,-87.6698 308.0858,-87.6698 308.0858,-87.6698 312.6922,-85.725 306.3356,-83.5241 317.2985,-83.7803 317.2985,-83.7803"/>
<text text-anchor="middle" x="303.887" y="-95.6171" font-family="Helvetica,sans-Serif" font-size="10.00" fill="#000000">버전노드설정들*</text>
</g>
<!-- A16 -->
<g id="node17" class="node">
<title>A16</title>
<polygon fill="none" stroke="#000000" points="588.3793,-144 488.8767,-144 488.8767,-108 588.3793,-108 588.3793,-144"/>
<text text-anchor="middle" x="538.628" y="-123" font-family="Helvetica,sans-Serif" font-size="10.00" fill="#000000">카피CA노드설정</text>
</g>
<!-- A10&#45;&gt;A16 -->
<g id="edge18" class="edge">
<title>A10&#45;&gt;A16</title>
<path fill="none" stroke="#000000" d="M413.1924,-87.9818C437.0538,-95.2139 465.1155,-103.7191 488.6399,-110.8491"/>
<polygon fill="none" stroke="#000000" points="414.1771,-84.623 403.5918,-85.0719 412.1466,-91.3221 414.1771,-84.623"/>
</g>
<!-- A17 -->
<g id="node18" class="node">
<title>A17</title>
<polygon fill="none" stroke="#000000" points="594.682,-90 482.574,-90 482.574,-54 594.682,-54 594.682,-90"/>
<text text-anchor="middle" x="538.628" y="-69" font-family="Helvetica,sans-Serif" font-size="10.00" fill="#000000">카피오더러노드설정</text>
</g>
<!-- A10&#45;&gt;A17 -->
<g id="edge19" class="edge">
<title>A10&#45;&gt;A17</title>
<path fill="none" stroke="#000000" d="M413.6158,-72C435.3093,-72 460.4179,-72 482.416,-72"/>
<polygon fill="none" stroke="#000000" points="413.5918,-68.5001 403.5918,-72 413.5917,-75.5001 413.5918,-68.5001"/>
</g>
<!-- A18 -->
<g id="node19" class="node">
<title>A18</title>
<polygon fill="none" stroke="#000000" points="593.3863,-36 483.8697,-36 483.8697,0 593.3863,0 593.3863,-36"/>
<text text-anchor="middle" x="538.628" y="-15" font-family="Helvetica,sans-Serif" font-size="10.00" fill="#000000">카피피어노드설정</text>
</g>
<!-- A10&#45;&gt;A18 -->
<g id="edge20" class="edge">
<title>A10&#45;&gt;A18</title>
<path fill="none" stroke="#000000" d="M413.1963,-56.0171C435.4213,-49.2809 461.2898,-41.4404 483.7416,-34.6355"/>
<polygon fill="none" stroke="#000000" points="412.1466,-52.6779 403.5918,-58.9281 414.1771,-59.377 412.1466,-52.6779"/>
</g>
<!-- A13 -->
<g id="node14" class="node">
<title>A13</title>
<polygon fill="none" stroke="#000000" points="726.2661,-265 650.6529,-265 650.6529,-229 726.2661,-229 726.2661,-265"/>
<text text-anchor="middle" x="688.4595" y="-244" font-family="Helvetica,sans-Serif" font-size="10.00" fill="#000000">CA노드설정</text>
</g>
<!-- A11&#45;&gt;A13 -->
<g id="edge15" class="edge">
<title>A11&#45;&gt;A13</title>
<path fill="none" stroke="#000000" d="M579.1637,-207.6093C601.3821,-215.6169 628.7524,-225.4813 650.5448,-233.3354"/>
<polygon fill="none" stroke="#000000" points="580.2676,-204.2868 569.6732,-204.1888 577.8941,-210.8721 580.2676,-204.2868"/>
</g>
<!-- A14 -->
<g id="node15" class="node">
<title>A14</title>
<polygon fill="none" stroke="#000000" points="732.0694,-211 644.8496,-211 644.8496,-175 732.0694,-175 732.0694,-211"/>
<text text-anchor="middle" x="688.4595" y="-190" font-family="Helvetica,sans-Serif" font-size="10.00" fill="#000000">오더러노드설정</text>
</g>
<!-- A11&#45;&gt;A14 -->
<g id="edge16" class="edge">
<title>A11&#45;&gt;A14</title>
<path fill="none" stroke="#000000" d="M579.7891,-193C599.9308,-193 624.1884,-193 644.6704,-193"/>
<polygon fill="none" stroke="#000000" points="579.6732,-189.5001 569.6732,-193 579.6731,-196.5001 579.6732,-189.5001"/>
</g>
<!-- A15 -->
<g id="node16" class="node">
<title>A15</title>
<polygon fill="none" stroke="#000000" points="731.2731,-157 645.6459,-157 645.6459,-121 731.2731,-121 731.2731,-157"/>
<text text-anchor="middle" x="688.4595" y="-136" font-family="Helvetica,sans-Serif" font-size="10.00" fill="#000000">피어노드설정</text>
</g>
<!-- A11&#45;&gt;A15 -->
<g id="edge17" class="edge">
<title>A11&#45;&gt;A15</title>
<path fill="none" stroke="#000000" d="M579.3537,-178.3223C599.8601,-170.9316 624.7177,-161.9729 645.5238,-154.4742"/>
<polygon fill="none" stroke="#000000" points="577.8941,-175.1279 569.6732,-181.8112 580.2676,-181.7132 577.8941,-175.1279"/>
</g>
<!-- A22 -->
<g id="node23" class="node">
<title>A22</title>
<polygon fill="#f5deb3" stroke="#000000" points="114.4744,-446 -.1584,-446 -.1584,-378 120.4744,-378 120.4744,-440 114.4744,-446"/>
<polyline fill="none" stroke="#000000" points="114.4744,-446 114.4744,-440 "/>
<polyline fill="none" stroke="#000000" points="120.4744,-440 114.4744,-440 "/>
<text text-anchor="middle" x="60.158" y="-433" font-family="Helvetica,sans-Serif" font-size="10.00" fill="#000000">설정&#45;Config</text>
<text text-anchor="middle" x="60.158" y="-409" font-family="Helvetica,sans-Serif" font-size="10.00" fill="#000000">노드설정&#45;NodeConfig </text>
<text text-anchor="middle" x="60.158" y="-385" font-family="Helvetica,sans-Serif" font-size="10.00" fill="#000000">조직&#45;Org</text>
</g>
</g>
</svg>
