<?xml version="1.0" encoding="UTF-8" standalone="no"?>
<!DOCTYPE svg PUBLIC "-//W3C//DTD SVG 1.1//EN"
 "http://www.w3.org/Graphics/SVG/1.1/DTD/svg11.dtd">
<!-- Generated by graphviz version 2.40.1 (20161225.0304)
 -->
<!-- Title: G Pages: 1 -->
<svg width="740pt" height="435pt"
 viewBox="0.00 0.00 740.26 435.00" xmlns="http://www.w3.org/2000/svg" xmlns:xlink="http://www.w3.org/1999/xlink">
<g id="graph0" class="graph" transform="scale(1 1) rotate(0) translate(4 431)">
<title>G</title>
<polygon fill="#ffffff" stroke="transparent" points="-4,4 -4,-431 736.264,-431 736.264,4 -4,4"/>
<!-- A0 -->
<g id="node1" class="node">
<title>A0</title>
<polygon fill="none" stroke="#000000" points="34.158,-308 34.158,-340 87.158,-340 87.158,-308 34.158,-308"/>
<text text-anchor="start" x="44.109" y="-321" font-family="Helvetica,sans-Serif" font-size="10.00" fill="#000000">네트워크</text>
<polygon fill="none" stroke="#000000" points="34.158,-276 34.158,-308 87.158,-308 87.158,-276 34.158,-276"/>
<text text-anchor="start" x="53.9945" y="-289" font-family="Helvetica,sans-Serif" font-size="10.00" fill="#000000">&#45;ID</text>
</g>
<!-- A1 -->
<g id="node2" class="node">
<title>A1</title>
<polygon fill="none" stroke="#000000" points="231.3205,-393 177.3205,-393 177.3205,-357 231.3205,-357 231.3205,-393"/>
<text text-anchor="middle" x="204.3205" y="-372" font-family="Helvetica,sans-Serif" font-size="10.00" fill="#000000">채널</text>
</g>
<!-- A0&#45;&gt;A1 -->
<g id="edge1" class="edge">
<title>A0&#45;&gt;A1</title>
<path fill="none" stroke="#000000" d="M98.4213,-325.783C119.8242,-335.7301 146.3709,-348.0678 167.5308,-357.9019"/>
<polygon fill="none" stroke="#000000" points="98.156,-325.6598 91.0291,-326.7584 87.2739,-320.6022 94.4008,-319.5036 98.156,-325.6598"/>
<polygon fill="#000000" stroke="#000000" points="176.8361,-362.2265 165.871,-362.0927 172.3018,-360.1192 167.7676,-358.0119 167.7676,-358.0119 167.7676,-358.0119 172.3018,-360.1192 169.6642,-353.9311 176.8361,-362.2265 176.8361,-362.2265"/>
<text text-anchor="middle" x="156.8361" y="-359.2521" font-family="Helvetica,sans-Serif" font-size="10.00" fill="#000000">channels*</text>
</g>
<!-- A3 -->
<g id="node4" class="node">
<title>A3</title>
<polygon fill="none" stroke="#000000" points="231.3205,-326 177.3205,-326 177.3205,-290 231.3205,-290 231.3205,-326"/>
<text text-anchor="middle" x="204.3205" y="-305" font-family="Helvetica,sans-Serif" font-size="10.00" fill="#000000">호스트</text>
</g>
<!-- A0&#45;&gt;A3 -->
<g id="edge3" class="edge">
<title>A0&#45;&gt;A3</title>
<path fill="none" stroke="#000000" d="M99.4301,-308C120.4114,-308 146.1073,-308 166.8146,-308"/>
<polygon fill="none" stroke="#000000" points="99.2739,-308.0001 93.2738,-312 87.2739,-308 93.2739,-304 99.2739,-308.0001"/>
<polygon fill="#000000" stroke="#000000" points="176.8361,-308 166.8361,-312.5001 171.8361,-308 166.8361,-308.0001 166.8361,-308.0001 166.8361,-308.0001 171.8361,-308 166.836,-303.5001 176.8361,-308 176.8361,-308"/>
<text text-anchor="middle" x="158.7099" y="-313.4524" font-family="Helvetica,sans-Serif" font-size="10.00" fill="#000000">hosts*</text>
</g>
<!-- A6 -->
<g id="node7" class="node">
<title>A6</title>
<polygon fill="none" stroke="#000000" points="238.3295,-224 170.3115,-224 170.3115,-188 238.3295,-188 238.3295,-224"/>
<text text-anchor="middle" x="204.3205" y="-203" font-family="Helvetica,sans-Serif" font-size="10.00" fill="#000000">카피설정</text>
</g>
<!-- A0&#45;&gt;A6 -->
<g id="edge5" class="edge">
<title>A0&#45;&gt;A6</title>
<path fill="none" stroke="#000000" d="M87.2739,-288.8146C110.8698,-272.1196 145.1694,-247.8515 170.5434,-229.8984"/>
<polygon fill="#000000" stroke="#000000" points="178.778,-224.0722 173.2138,-233.5216 174.6964,-226.9601 170.6147,-229.8481 170.6147,-229.8481 170.6147,-229.8481 174.6964,-226.9601 168.0156,-226.1746 178.778,-224.0722 178.778,-224.0722"/>
<text text-anchor="middle" x="168.863" y="-238.4415" font-family="Helvetica,sans-Serif" font-size="10.00" fill="#000000">커스텀노드설정</text>
</g>
<!-- A2 -->
<g id="node3" class="node">
<title>A2</title>
<polygon fill="none" stroke="#000000" points="573.3775,-427 503.8785,-427 503.8785,-391 573.3775,-391 573.3775,-427"/>
<text text-anchor="middle" x="538.628" y="-406" font-family="Helvetica,sans-Serif" font-size="10.00" fill="#000000">피어노드</text>
</g>
<!-- A1&#45;&gt;A2 -->
<g id="edge2" class="edge">
<title>A1&#45;&gt;A2</title>
<path fill="none" stroke="#000000" d="M243.6431,-378.9992C306.1129,-385.3526 427.6815,-397.7164 493.5696,-404.4174"/>
<polygon fill="none" stroke="#000000" points="243.3335,-378.9678 236.9596,-382.3402 231.3951,-377.7536 237.7691,-374.3812 243.3335,-378.9678"/>
<polygon fill="#000000" stroke="#000000" points="503.6486,-405.4425 493.2446,-408.9075 498.6743,-404.9366 493.7,-404.4306 493.7,-404.4306 493.7,-404.4306 498.6743,-404.9366 494.1553,-399.9537 503.6486,-405.4425 503.6486,-405.4425"/>
<text text-anchor="middle" x="484.7603" y="-409.0175" font-family="Helvetica,sans-Serif" font-size="10.00" fill="#000000">peer_nodes*</text>
</g>
<!-- A4 -->
<g id="node5" class="node">
<title>A4</title>
<polygon fill="none" stroke="#000000" points="387.463,-326 333.463,-326 333.463,-290 387.463,-290 387.463,-326"/>
<text text-anchor="middle" x="360.463" y="-305" font-family="Helvetica,sans-Serif" font-size="10.00" fill="#000000">노드</text>
</g>
<!-- A3&#45;&gt;A4 -->
<g id="edge4" class="edge">
<title>A3&#45;&gt;A4</title>
<path fill="none" stroke="#000000" d="M243.679,-308C268.0633,-308 299.1936,-308 323.1806,-308"/>
<polygon fill="none" stroke="#000000" points="243.5184,-308.0001 237.5184,-312 231.5184,-308 237.5185,-304 243.5184,-308.0001"/>
<polygon fill="#000000" stroke="#000000" points="333.3152,-308 323.3153,-312.5001 328.3152,-308 323.3152,-308.0001 323.3152,-308.0001 323.3152,-308.0001 328.3152,-308 323.3152,-303.5001 333.3152,-308 333.3152,-308"/>
<text text-anchor="middle" x="315.1891" y="-313.4524" font-family="Helvetica,sans-Serif" font-size="10.00" fill="#000000">nodes*</text>
</g>
<!-- A4&#45;&gt;A2 -->
<g id="edge17" class="edge">
<title>A4&#45;&gt;A2</title>
<path fill="none" stroke="#000000" d="M396.1349,-330.852C420.215,-345.9686 452.9026,-365.8951 482.601,-382 489.3401,-385.6545 496.6507,-389.3587 503.6974,-392.804"/>
<polygon fill="none" stroke="#000000" points="397.9997,-327.8901 387.6742,-325.5163 394.2657,-333.8111 397.9997,-327.8901"/>
</g>
<!-- A16 -->
<g id="node17" class="node">
<title>A16</title>
<polygon fill="none" stroke="#000000" points="574.673,-373 502.583,-373 502.583,-337 574.673,-337 574.673,-373"/>
<text text-anchor="middle" x="538.628" y="-352" font-family="Helvetica,sans-Serif" font-size="10.00" fill="#000000">오더러노드</text>
</g>
<!-- A4&#45;&gt;A16 -->
<g id="edge16" class="edge">
<title>A4&#45;&gt;A16</title>
<path fill="none" stroke="#000000" d="M397.4304,-317.752C428.2027,-325.8698 471.7715,-337.3632 502.3505,-345.43"/>
<polygon fill="none" stroke="#000000" points="398.0844,-314.3049 387.5224,-315.1383 396.2989,-321.0733 398.0844,-314.3049"/>
</g>
<!-- A17 -->
<g id="node18" class="node">
<title>A17</title>
<polygon fill="none" stroke="#000000" points="568.3706,-319 508.8854,-319 508.8854,-283 568.3706,-283 568.3706,-319"/>
<text text-anchor="middle" x="538.628" y="-298" font-family="Helvetica,sans-Serif" font-size="10.00" fill="#000000">CA노드</text>
</g>
<!-- A4&#45;&gt;A17 -->
<g id="edge18" class="edge">
<title>A4&#45;&gt;A17</title>
<path fill="none" stroke="#000000" d="M397.6664,-306.5383C430.6044,-305.2442 478.0665,-303.3794 508.6298,-302.1786"/>
<polygon fill="none" stroke="#000000" points="397.3773,-303.0469 387.5224,-306.9369 397.6522,-310.0415 397.3773,-303.0469"/>
</g>
<!-- A18 -->
<g id="node19" class="node">
<title>A18</title>
<polygon fill="none" stroke="#000000" points="569.5404,-265 507.7156,-265 507.7156,-229 569.5404,-229 569.5404,-265"/>
<text text-anchor="middle" x="538.628" y="-244" font-family="Helvetica,sans-Serif" font-size="10.00" fill="#000000">CLI노드</text>
</g>
<!-- A4&#45;&gt;A18 -->
<g id="edge19" class="edge">
<title>A4&#45;&gt;A18</title>
<path fill="none" stroke="#000000" d="M397.1479,-295.4398C429.7793,-284.2675 476.9633,-268.1127 507.7149,-257.584"/>
<polygon fill="none" stroke="#000000" points="395.8495,-292.1849 387.5224,-298.7354 398.117,-298.8074 395.8495,-292.1849"/>
</g>
<!-- A5 -->
<g id="node6" class="node">
<title>A5</title>
<polygon fill="none" stroke="#000000" points="320.463,-218 320.463,-250 400.463,-250 400.463,-218 320.463,-218"/>
<text text-anchor="start" x="352.681" y="-231" font-family="Helvetica,sans-Serif" font-size="10.00" fill="#000000">설정</text>
<polygon fill="none" stroke="#000000" points="320.463,-162 320.463,-218 400.463,-218 400.463,-162 320.463,-162"/>
<text text-anchor="start" x="330.262" y="-199" font-family="Helvetica,sans-Serif" font-size="10.00" fill="#000000">블록체인종류</text>
<text text-anchor="start" x="350.301" y="-187" font-family="Helvetica,sans-Serif" font-size="10.00" fill="#000000">버전</text>
<text text-anchor="start" x="339.4655" y="-175" font-family="Helvetica,sans-Serif" font-size="10.00" fill="#000000">서비스타입</text>
</g>
<!-- A8 -->
<g id="node9" class="node">
<title>A8</title>
<polygon fill="none" stroke="#000000" points="569.5474,-211 507.7086,-211 507.7086,-175 569.5474,-175 569.5474,-211"/>
<text text-anchor="middle" x="538.628" y="-190" font-family="Helvetica,sans-Serif" font-size="10.00" fill="#000000">노드설정</text>
</g>
<!-- A5&#45;&gt;A8 -->
<g id="edge8" class="edge">
<title>A5&#45;&gt;A8</title>
<path fill="none" stroke="#000000" d="M413.1746,-202.1538C440.1257,-200.1873 472.4391,-197.8295 497.5211,-195.9994"/>
<polygon fill="none" stroke="#000000" points="412.8596,-202.1767 407.1666,-206.6028 400.8914,-203.0501 406.5844,-198.624 412.8596,-202.1767"/>
<polygon fill="#000000" stroke="#000000" points="507.7911,-195.25 498.1451,-200.4659 502.8043,-195.614 497.8176,-195.9779 497.8176,-195.9779 497.8176,-195.9779 502.8043,-195.614 497.4901,-191.4898 507.7911,-195.25 507.7911,-195.25"/>
<text text-anchor="middle" x="490.3281" y="-201.9991" font-family="Helvetica,sans-Serif" font-size="10.00" fill="#000000">버전노드설정들*</text>
</g>
<!-- A9 -->
<g id="node10" class="node">
<title>A9</title>
<polygon fill="#f5deb3" stroke="#000000" points="426.7393,-144 288.1867,-144 288.1867,-108 432.7393,-108 432.7393,-138 426.7393,-144"/>
<polyline fill="none" stroke="#000000" points="426.7393,-144 426.7393,-138 "/>
<polyline fill="none" stroke="#000000" points="432.7393,-138 426.7393,-138 "/>
<text text-anchor="middle" x="360.463" y="-123" font-family="Helvetica,sans-Serif" font-size="10.00" fill="#000000">노드부분에 수정사항 추가</text>
</g>
<!-- A5&#45;&gt;A9 -->
<g id="edge9" class="edge">
<title>A5&#45;&gt;A9</title>
<path fill="none" stroke="#000000" stroke-dasharray="5,2" d="M360.463,-161.5273C360.463,-155.7266 360.463,-149.9258 360.463,-144.125"/>
</g>
<!-- A6&#45;&gt;A5 -->
<g id="edge7" class="edge">
<title>A6&#45;&gt;A5</title>
<path fill="none" stroke="#000000" d="M238.5866,-206C259.5441,-206 286.7283,-206 310.1038,-206"/>
<polygon fill="#000000" stroke="#000000" points="320.1985,-206 310.1986,-210.5001 315.1985,-206 310.1985,-206.0001 310.1985,-206.0001 310.1985,-206.0001 315.1985,-206 310.1985,-201.5001 320.1985,-206 320.1985,-206"/>
<text text-anchor="middle" x="302.0724" y="-211.4524" font-family="Helvetica,sans-Serif" font-size="10.00" fill="#000000">커스텀노드설정</text>
</g>
<!-- A7 -->
<g id="node8" class="node">
<title>A7</title>
<polygon fill="none" stroke="#000000" points="403.3261,-90 317.5999,-90 317.5999,-54 403.3261,-54 403.3261,-90"/>
<text text-anchor="middle" x="360.463" y="-69" font-family="Helvetica,sans-Serif" font-size="10.00" fill="#000000">카피노드설정</text>
</g>
<!-- A6&#45;&gt;A7 -->
<g id="edge6" class="edge">
<title>A6&#45;&gt;A7</title>
<path fill="none" stroke="#000000" d="M220.5765,-177.4278C235.4657,-153.5344 259.5301,-120.0689 288.325,-99 294.2606,-94.657 300.9755,-90.9338 307.8609,-87.7647"/>
<polygon fill="none" stroke="#000000" points="220.4126,-177.6994 220.7359,-184.9033 214.2105,-187.9724 213.8872,-180.7686 220.4126,-177.6994"/>
<polygon fill="#000000" stroke="#000000" points="317.2985,-83.7803 309.8361,-91.8154 312.6922,-85.725 308.0858,-87.6698 308.0858,-87.6698 308.0858,-87.6698 312.6922,-85.725 306.3356,-83.5241 317.2985,-83.7803 317.2985,-83.7803"/>
<text text-anchor="middle" x="303.887" y="-95.6171" font-family="Helvetica,sans-Serif" font-size="10.00" fill="#000000">버전노드설정들*</text>
</g>
<!-- A13 -->
<g id="node14" class="node">
<title>A13</title>
<polygon fill="none" stroke="#000000" points="588.3793,-144 488.8767,-144 488.8767,-108 588.3793,-108 588.3793,-144"/>
<text text-anchor="middle" x="538.628" y="-123" font-family="Helvetica,sans-Serif" font-size="10.00" fill="#000000">카피CA노드설정</text>
</g>
<!-- A7&#45;&gt;A13 -->
<g id="edge13" class="edge">
<title>A7&#45;&gt;A13</title>
<path fill="none" stroke="#000000" d="M413.1924,-87.9818C437.0538,-95.2139 465.1155,-103.7191 488.6399,-110.8491"/>
<polygon fill="none" stroke="#000000" points="414.1771,-84.623 403.5918,-85.0719 412.1466,-91.3221 414.1771,-84.623"/>
</g>
<!-- A14 -->
<g id="node15" class="node">
<title>A14</title>
<polygon fill="none" stroke="#000000" points="594.682,-90 482.574,-90 482.574,-54 594.682,-54 594.682,-90"/>
<text text-anchor="middle" x="538.628" y="-69" font-family="Helvetica,sans-Serif" font-size="10.00" fill="#000000">카피오더러노드설정</text>
</g>
<!-- A7&#45;&gt;A14 -->
<g id="edge14" class="edge">
<title>A7&#45;&gt;A14</title>
<path fill="none" stroke="#000000" d="M413.6158,-72C435.3093,-72 460.4179,-72 482.416,-72"/>
<polygon fill="none" stroke="#000000" points="413.5918,-68.5001 403.5918,-72 413.5917,-75.5001 413.5918,-68.5001"/>
</g>
<!-- A15 -->
<g id="node16" class="node">
<title>A15</title>
<polygon fill="none" stroke="#000000" points="593.3863,-36 483.8697,-36 483.8697,0 593.3863,0 593.3863,-36"/>
<text text-anchor="middle" x="538.628" y="-15" font-family="Helvetica,sans-Serif" font-size="10.00" fill="#000000">카피피어노드설정</text>
</g>
<!-- A7&#45;&gt;A15 -->
<g id="edge15" class="edge">
<title>A7&#45;&gt;A15</title>
<path fill="none" stroke="#000000" d="M413.1963,-56.0171C435.4213,-49.2809 461.2898,-41.4404 483.7416,-34.6355"/>
<polygon fill="none" stroke="#000000" points="412.1466,-52.6779 403.5918,-58.9281 414.1771,-59.377 412.1466,-52.6779"/>
</g>
<!-- A10 -->
<g id="node11" class="node">
<title>A10</title>
<polygon fill="none" stroke="#000000" points="726.2661,-265 650.6529,-265 650.6529,-229 726.2661,-229 726.2661,-265"/>
<text text-anchor="middle" x="688.4595" y="-244" font-family="Helvetica,sans-Serif" font-size="10.00" fill="#000000">CA노드설정</text>
</g>
<!-- A8&#45;&gt;A10 -->
<g id="edge10" class="edge">
<title>A8&#45;&gt;A10</title>
<path fill="none" stroke="#000000" d="M579.1637,-207.6093C601.3821,-215.6169 628.7524,-225.4813 650.5448,-233.3354"/>
<polygon fill="none" stroke="#000000" points="580.2676,-204.2868 569.6732,-204.1888 577.8941,-210.8721 580.2676,-204.2868"/>
</g>
<!-- A11 -->
<g id="node12" class="node">
<title>A11</title>
<polygon fill="none" stroke="#000000" points="732.0694,-211 644.8496,-211 644.8496,-175 732.0694,-175 732.0694,-211"/>
<text text-anchor="middle" x="688.4595" y="-190" font-family="Helvetica,sans-Serif" font-size="10.00" fill="#000000">오더러노드설정</text>
</g>
<!-- A8&#45;&gt;A11 -->
<g id="edge11" class="edge">
<title>A8&#45;&gt;A11</title>
<path fill="none" stroke="#000000" d="M579.7891,-193C599.9308,-193 624.1884,-193 644.6704,-193"/>
<polygon fill="none" stroke="#000000" points="579.6732,-189.5001 569.6732,-193 579.6731,-196.5001 579.6732,-189.5001"/>
</g>
<!-- A12 -->
<g id="node13" class="node">
<title>A12</title>
<polygon fill="none" stroke="#000000" points="731.2731,-157 645.6459,-157 645.6459,-121 731.2731,-121 731.2731,-157"/>
<text text-anchor="middle" x="688.4595" y="-136" font-family="Helvetica,sans-Serif" font-size="10.00" fill="#000000">피어노드설정</text>
</g>
<!-- A8&#45;&gt;A12 -->
<g id="edge12" class="edge">
<title>A8&#45;&gt;A12</title>
<path fill="none" stroke="#000000" d="M579.3537,-178.3223C599.8601,-170.9316 624.7177,-161.9729 645.5238,-154.4742"/>
<polygon fill="none" stroke="#000000" points="577.8941,-175.1279 569.6732,-181.8112 580.2676,-181.7132 577.8941,-175.1279"/>
</g>
<!-- A19 -->
<g id="node20" class="node">
<title>A19</title>
<polygon fill="#f5deb3" stroke="#000000" points="114.4744,-426 -.1584,-426 -.1584,-358 120.4744,-358 120.4744,-420 114.4744,-426"/>
<polyline fill="none" stroke="#000000" points="114.4744,-426 114.4744,-420 "/>
<polyline fill="none" stroke="#000000" points="120.4744,-420 114.4744,-420 "/>
<text text-anchor="middle" x="60.158" y="-413" font-family="Helvetica,sans-Serif" font-size="10.00" fill="#000000">설정&#45;Config</text>
<text text-anchor="middle" x="60.158" y="-389" font-family="Helvetica,sans-Serif" font-size="10.00" fill="#000000">노드설정&#45;NodeConfig </text>
<text text-anchor="middle" x="60.158" y="-365" font-family="Helvetica,sans-Serif" font-size="10.00" fill="#000000">조직&#45;Org</text>
</g>
</g>
</svg>
