<?xml version="1.0" encoding="UTF-8" standalone="no"?>
<!DOCTYPE svg PUBLIC "-//W3C//DTD SVG 1.1//EN"
 "http://www.w3.org/Graphics/SVG/1.1/DTD/svg11.dtd">
<!-- Generated by graphviz version 2.40.1 (20161225.0304)
 -->
<!-- Title: G Pages: 1 -->
<svg width="746pt" height="504pt"
 viewBox="0.00 0.00 746.45 504.00" xmlns="http://www.w3.org/2000/svg" xmlns:xlink="http://www.w3.org/1999/xlink">
<g id="graph0" class="graph" transform="scale(1 1) rotate(0) translate(4 500)">
<title>G</title>
<polygon fill="#ffffff" stroke="transparent" points="-4,4 -4,-500 742.45,-500 742.45,4 -4,4"/>
<!-- A0 -->
<g id="node1" class="node">
<title>A0</title>
<polygon fill="none" stroke="#000000" points="34.158,-378 34.158,-410 87.158,-410 87.158,-378 34.158,-378"/>
<text text-anchor="start" x="44.109" y="-391" font-family="Helvetica,sans-Serif" font-size="10.00" fill="#000000">네트워크</text>
<polygon fill="none" stroke="#000000" points="34.158,-346 34.158,-378 87.158,-378 87.158,-346 34.158,-346"/>
<text text-anchor="start" x="53.9945" y="-359" font-family="Helvetica,sans-Serif" font-size="10.00" fill="#000000">&#45;ID</text>
</g>
<!-- A1 -->
<g id="node2" class="node">
<title>A1</title>
<polygon fill="none" stroke="#000000" points="244.6088,-465 170.2182,-465 170.2182,-429 244.6088,-429 244.6088,-465"/>
<text text-anchor="middle" x="207.4135" y="-444" font-family="Helvetica,sans-Serif" font-size="10.00" fill="#000000">오더러조직</text>
</g>
<!-- A0&#45;&gt;A1 -->
<g id="edge1" class="edge">
<title>A0&#45;&gt;A1</title>
<path fill="none" stroke="#000000" d="M98.1557,-395.8047C117.2463,-404.75 140.548,-415.6686 160.7208,-425.121"/>
<polygon fill="none" stroke="#000000" points="98.0332,-395.7474 90.9028,-396.8236 87.1669,-390.6557 94.2973,-389.5794 98.0332,-395.7474"/>
<polygon fill="#000000" stroke="#000000" points="170.0405,-429.488 159.0759,-429.3198 165.5129,-427.3665 160.9853,-425.2449 160.9853,-425.2449 160.9853,-425.2449 165.5129,-427.3665 162.8947,-421.1701 170.0405,-429.488 170.0405,-429.488"/>
<text text-anchor="middle" x="150.0406" y="-426.4508" font-family="Helvetica,sans-Serif" font-size="10.00" fill="#000000">*</text>
</g>
<!-- A2 -->
<g id="node3" class="node">
<title>A2</title>
<polygon fill="none" stroke="#000000" points="580.7131,-465 508.9149,-465 508.9149,-429 580.7131,-429 580.7131,-465"/>
<text text-anchor="middle" x="544.814" y="-444" font-family="Helvetica,sans-Serif" font-size="10.00" fill="#000000">피어조직</text>
</g>
<!-- A0&#45;&gt;A2 -->
<g id="edge2" class="edge">
<title>A0&#45;&gt;A2</title>
<path fill="none" stroke="#000000" d="M99.8181,-380.578C169.0383,-385.4822 316.2212,-397.7077 438.787,-420 458.747,-423.6303 480.5073,-428.9311 499.0914,-433.8766"/>
<polygon fill="none" stroke="#000000" points="99.4049,-380.5495 93.1429,-384.1254 87.4336,-379.7203 93.6956,-376.1445 99.4049,-380.5495"/>
<polygon fill="#000000" stroke="#000000" points="508.7748,-436.4969 497.9465,-438.2286 503.9484,-435.1908 499.1219,-433.8848 499.1219,-433.8848 499.1219,-433.8848 503.9484,-435.1908 500.2974,-429.541 508.7748,-436.4969 508.7748,-436.4969"/>
<text text-anchor="middle" x="489.0701" y="-436.9212" font-family="Helvetica,sans-Serif" font-size="10.00" fill="#000000">*</text>
</g>
<!-- A5 -->
<g id="node6" class="node">
<title>A5</title>
<polygon fill="none" stroke="#000000" points="234.4135,-373 180.4135,-373 180.4135,-337 234.4135,-337 234.4135,-373"/>
<text text-anchor="middle" x="207.4135" y="-352" font-family="Helvetica,sans-Serif" font-size="10.00" fill="#000000">호스트</text>
</g>
<!-- A0&#45;&gt;A5 -->
<g id="edge7" class="edge">
<title>A0&#45;&gt;A5</title>
<path fill="none" stroke="#000000" d="M99.0762,-371.9213C121.0783,-368.4848 148.4428,-364.2107 170.1648,-360.8179"/>
<polygon fill="none" stroke="#000000" points="99.0232,-371.9295 93.7124,-376.8076 87.1669,-373.7814 92.4777,-368.9034 99.0232,-371.9295"/>
<polygon fill="#000000" stroke="#000000" points="180.3269,-359.2307 171.1411,-365.2201 175.3868,-360.0023 170.4466,-360.774 170.4466,-360.774 170.4466,-360.774 175.3868,-360.0023 169.7522,-356.3279 180.3269,-359.2307 180.3269,-359.2307"/>
<text text-anchor="middle" x="163.7222" y="-367.379" font-family="Helvetica,sans-Serif" font-size="10.00" fill="#000000">hosts*</text>
</g>
<!-- A8 -->
<g id="node9" class="node">
<title>A8</title>
<polygon fill="none" stroke="#000000" points="241.4225,-224 173.4045,-224 173.4045,-188 241.4225,-188 241.4225,-224"/>
<text text-anchor="middle" x="207.4135" y="-203" font-family="Helvetica,sans-Serif" font-size="10.00" fill="#000000">카피설정</text>
</g>
<!-- A0&#45;&gt;A8 -->
<g id="edge9" class="edge">
<title>A0&#45;&gt;A8</title>
<path fill="none" stroke="#000000" d="M87.1669,-346.4525C115.368,-313.5127 159.0698,-262.4672 185.2964,-231.8336"/>
<polygon fill="#000000" stroke="#000000" points="191.8852,-224.1376 188.8,-234.6606 188.6334,-227.9358 185.3817,-231.734 185.3817,-231.734 185.3817,-231.734 188.6334,-227.9358 181.9633,-228.8074 191.8852,-224.1376 191.8852,-224.1376"/>
<text text-anchor="middle" x="186.5176" y="-240.4039" font-family="Helvetica,sans-Serif" font-size="10.00" fill="#000000">커스텀노드설정</text>
</g>
<!-- A4 -->
<g id="node5" class="node">
<title>A4</title>
<polygon fill="none" stroke="#000000" points="393.649,-465 339.649,-465 339.649,-429 393.649,-429 393.649,-465"/>
<text text-anchor="middle" x="366.649" y="-444" font-family="Helvetica,sans-Serif" font-size="10.00" fill="#000000">채널</text>
</g>
<!-- A1&#45;&gt;A4 -->
<g id="edge4" class="edge">
<title>A1&#45;&gt;A4</title>
<path fill="none" stroke="#000000" d="M256.8243,-447C280.249,-447 307.7696,-447 329.4017,-447"/>
<polygon fill="none" stroke="#000000" points="256.7472,-447.0001 250.7471,-451 244.7472,-447 250.7472,-443 256.7472,-447.0001"/>
<polygon fill="#000000" stroke="#000000" points="339.5044,-447 329.5044,-451.5001 334.5044,-447 329.5044,-447.0001 329.5044,-447.0001 329.5044,-447.0001 334.5044,-447 329.5043,-442.5001 339.5044,-447 339.5044,-447"/>
<text text-anchor="middle" x="321.3782" y="-452.4524" font-family="Helvetica,sans-Serif" font-size="10.00" fill="#000000">channels*</text>
</g>
<!-- A3 -->
<g id="node4" class="node">
<title>A3</title>
<polygon fill="none" stroke="#000000" points="729.395,-465 659.896,-465 659.896,-429 729.395,-429 729.395,-465"/>
<text text-anchor="middle" x="694.6455" y="-444" font-family="Helvetica,sans-Serif" font-size="10.00" fill="#000000">피어노드</text>
</g>
<!-- A2&#45;&gt;A3 -->
<g id="edge3" class="edge">
<title>A2&#45;&gt;A3</title>
<path fill="none" stroke="#000000" d="M593.3677,-447C611.4516,-447 631.8844,-447 649.6367,-447"/>
<polygon fill="none" stroke="#000000" points="593.084,-447.0001 587.084,-451 581.084,-447 587.0841,-443 593.084,-447.0001"/>
<polygon fill="#000000" stroke="#000000" points="659.7412,-447 649.7412,-451.5001 654.7412,-447 649.7412,-447.0001 649.7412,-447.0001 649.7412,-447.0001 654.7412,-447 649.7411,-442.5001 659.7412,-447 659.7412,-447"/>
<text text-anchor="middle" x="641.615" y="-452.4524" font-family="Helvetica,sans-Serif" font-size="10.00" fill="#000000">*</text>
</g>
<!-- A4&#45;&gt;A2 -->
<g id="edge5" class="edge">
<title>A4&#45;&gt;A2</title>
<path fill="none" stroke="#000000" d="M406.092,-447C433.4434,-447 469.9657,-447 498.6701,-447"/>
<polygon fill="none" stroke="#000000" points="405.7084,-447.0001 399.7084,-451 393.7084,-447 399.7085,-443 405.7084,-447.0001"/>
<polygon fill="#000000" stroke="#000000" points="508.8602,-447 498.8602,-451.5001 503.8602,-447 498.8602,-447.0001 498.8602,-447.0001 498.8602,-447.0001 503.8602,-447 498.8601,-442.5001 508.8602,-447 508.8602,-447"/>
<text text-anchor="middle" x="490.734" y="-452.4524" font-family="Helvetica,sans-Serif" font-size="10.00" fill="#000000">peer_nodes*</text>
</g>
<!-- A4&#45;&gt;A3 -->
<g id="edge6" class="edge">
<title>A4&#45;&gt;A3</title>
<path fill="none" stroke="#000000" d="M405.7326,-457.9157C429.5267,-463.9895 460.6601,-470.9282 488.787,-474 538.2944,-479.4068 551.5274,-480.9558 600.841,-474 617.0841,-471.7089 634.4549,-467.2902 649.7783,-462.6804"/>
<polygon fill="none" stroke="#000000" points="405.6213,-457.8866 398.803,-460.2342 394.0136,-454.8434 400.8318,-452.4958 405.6213,-457.8866"/>
<polygon fill="#000000" stroke="#000000" points="659.52,-459.644 651.3121,-466.9159 654.7465,-461.1319 649.973,-462.6198 649.973,-462.6198 649.973,-462.6198 654.7465,-461.1319 648.6339,-458.3237 659.52,-459.644 659.52,-459.644"/>
<text text-anchor="middle" x="644.7302" y="-470.1073" font-family="Helvetica,sans-Serif" font-size="10.00" fill="#000000">peer_nodes*</text>
</g>
<!-- A6 -->
<g id="node7" class="node">
<title>A6</title>
<polygon fill="none" stroke="#000000" points="393.649,-373 339.649,-373 339.649,-337 393.649,-337 393.649,-373"/>
<text text-anchor="middle" x="366.649" y="-352" font-family="Helvetica,sans-Serif" font-size="10.00" fill="#000000">노드</text>
</g>
<!-- A5&#45;&gt;A6 -->
<g id="edge8" class="edge">
<title>A5&#45;&gt;A6</title>
<path fill="none" stroke="#000000" d="M246.5324,-355C271.7928,-355 304.466,-355 329.3574,-355"/>
<polygon fill="none" stroke="#000000" points="246.4256,-355.0001 240.4256,-359 234.4256,-355 240.4257,-351 246.4256,-355.0001"/>
<polygon fill="#000000" stroke="#000000" points="339.5044,-355 329.5044,-359.5001 334.5044,-355 329.5044,-355.0001 329.5044,-355.0001 329.5044,-355.0001 334.5044,-355 329.5043,-350.5001 339.5044,-355 339.5044,-355"/>
<text text-anchor="middle" x="321.3782" y="-360.4524" font-family="Helvetica,sans-Serif" font-size="10.00" fill="#000000">nodes*</text>
</g>
<!-- A6&#45;&gt;A3 -->
<g id="edge21" class="edge">
<title>A6&#45;&gt;A3</title>
<path fill="none" stroke="#000000" d="M403.5685,-365.1302C449.74,-377.8259 531.1938,-400.3118 600.841,-420 620.2471,-425.4858 641.8808,-431.7057 659.4779,-436.7918"/>
<polygon fill="none" stroke="#000000" points="404.2884,-361.6984 393.7184,-362.4231 402.4334,-368.4481 404.2884,-361.6984"/>
</g>
<!-- A18 -->
<g id="node19" class="node">
<title>A18</title>
<polygon fill="none" stroke="#000000" points="580.859,-373 508.769,-373 508.769,-337 580.859,-337 580.859,-373"/>
<text text-anchor="middle" x="544.814" y="-352" font-family="Helvetica,sans-Serif" font-size="10.00" fill="#000000">오더러노드</text>
</g>
<!-- A6&#45;&gt;A18 -->
<g id="edge20" class="edge">
<title>A6&#45;&gt;A18</title>
<path fill="none" stroke="#000000" d="M404.0185,-355C434.7673,-355 478.0905,-355 508.5365,-355"/>
<polygon fill="none" stroke="#000000" points="403.7085,-351.5001 393.7084,-355 403.7084,-358.5001 403.7085,-351.5001"/>
</g>
<!-- A19 -->
<g id="node20" class="node">
<title>A19</title>
<polygon fill="none" stroke="#000000" points="574.5566,-319 515.0714,-319 515.0714,-283 574.5566,-283 574.5566,-319"/>
<text text-anchor="middle" x="544.814" y="-298" font-family="Helvetica,sans-Serif" font-size="10.00" fill="#000000">CA노드</text>
</g>
<!-- A6&#45;&gt;A19 -->
<g id="edge22" class="edge">
<title>A6&#45;&gt;A19</title>
<path fill="none" stroke="#000000" d="M403.4255,-343.8534C436.3792,-333.8655 484.1202,-319.3957 514.8158,-310.0922"/>
<polygon fill="none" stroke="#000000" points="402.2633,-340.5484 393.7084,-346.7986 404.2938,-347.2474 402.2633,-340.5484"/>
</g>
<!-- A20 -->
<g id="node21" class="node">
<title>A20</title>
<polygon fill="none" stroke="#000000" points="575.7264,-265 513.9016,-265 513.9016,-229 575.7264,-229 575.7264,-265"/>
<text text-anchor="middle" x="544.814" y="-244" font-family="Helvetica,sans-Serif" font-size="10.00" fill="#000000">CLI노드</text>
</g>
<!-- A6&#45;&gt;A20 -->
<g id="edge23" class="edge">
<title>A6&#45;&gt;A20</title>
<path fill="none" stroke="#000000" d="M400.1739,-330.968C424.284,-314.1347 457.865,-291.5953 488.787,-274 496.7639,-269.461 505.6203,-264.9596 513.8928,-260.9712"/>
<polygon fill="none" stroke="#000000" points="397.9126,-328.2792 391.7422,-336.8918 401.9367,-334.0069 397.9126,-328.2792"/>
</g>
<!-- A7 -->
<g id="node8" class="node">
<title>A7</title>
<polygon fill="none" stroke="#000000" points="326.649,-218 326.649,-250 406.649,-250 406.649,-218 326.649,-218"/>
<text text-anchor="start" x="358.867" y="-231" font-family="Helvetica,sans-Serif" font-size="10.00" fill="#000000">설정</text>
<polygon fill="none" stroke="#000000" points="326.649,-162 326.649,-218 406.649,-218 406.649,-162 326.649,-162"/>
<text text-anchor="start" x="336.448" y="-199" font-family="Helvetica,sans-Serif" font-size="10.00" fill="#000000">블록체인종류</text>
<text text-anchor="start" x="356.487" y="-187" font-family="Helvetica,sans-Serif" font-size="10.00" fill="#000000">버전</text>
<text text-anchor="start" x="345.6515" y="-175" font-family="Helvetica,sans-Serif" font-size="10.00" fill="#000000">서비스타입</text>
</g>
<!-- A10 -->
<g id="node11" class="node">
<title>A10</title>
<polygon fill="none" stroke="#000000" points="575.7334,-211 513.8946,-211 513.8946,-175 575.7334,-175 575.7334,-211"/>
<text text-anchor="middle" x="544.814" y="-190" font-family="Helvetica,sans-Serif" font-size="10.00" fill="#000000">노드설정</text>
</g>
<!-- A7&#45;&gt;A10 -->
<g id="edge12" class="edge">
<title>A7&#45;&gt;A10</title>
<path fill="none" stroke="#000000" d="M419.3606,-202.1538C446.3117,-200.1873 478.6251,-197.8295 503.7071,-195.9994"/>
<polygon fill="none" stroke="#000000" points="419.0456,-202.1767 413.3526,-206.6028 407.0774,-203.0501 412.7704,-198.624 419.0456,-202.1767"/>
<polygon fill="#000000" stroke="#000000" points="513.9771,-195.25 504.3311,-200.4659 508.9903,-195.614 504.0036,-195.9779 504.0036,-195.9779 504.0036,-195.9779 508.9903,-195.614 503.6761,-191.4898 513.9771,-195.25 513.9771,-195.25"/>
<text text-anchor="middle" x="496.5141" y="-201.9991" font-family="Helvetica,sans-Serif" font-size="10.00" fill="#000000">버전노드설정들*</text>
</g>
<!-- A11 -->
<g id="node12" class="node">
<title>A11</title>
<polygon fill="#f5deb3" stroke="#000000" points="432.9253,-144 294.3727,-144 294.3727,-108 438.9253,-108 438.9253,-138 432.9253,-144"/>
<polyline fill="none" stroke="#000000" points="432.9253,-144 432.9253,-138 "/>
<polyline fill="none" stroke="#000000" points="438.9253,-138 432.9253,-138 "/>
<text text-anchor="middle" x="366.649" y="-123" font-family="Helvetica,sans-Serif" font-size="10.00" fill="#000000">노드부분에 수정사항 추가</text>
</g>
<!-- A7&#45;&gt;A11 -->
<g id="edge13" class="edge">
<title>A7&#45;&gt;A11</title>
<path fill="none" stroke="#000000" stroke-dasharray="5,2" d="M366.649,-161.5273C366.649,-155.7266 366.649,-149.9258 366.649,-144.125"/>
</g>
<!-- A8&#45;&gt;A7 -->
<g id="edge11" class="edge">
<title>A8&#45;&gt;A7</title>
<path fill="none" stroke="#000000" d="M241.5735,-206C263.4029,-206 292.0885,-206 316.4811,-206"/>
<polygon fill="#000000" stroke="#000000" points="326.6398,-206 316.6398,-210.5001 321.6398,-206 316.6398,-206.0001 316.6398,-206.0001 316.6398,-206.0001 321.6398,-206 316.6398,-201.5001 326.6398,-206 326.6398,-206"/>
<text text-anchor="middle" x="308.5136" y="-211.4524" font-family="Helvetica,sans-Serif" font-size="10.00" fill="#000000">커스텀노드설정</text>
</g>
<!-- A9 -->
<g id="node10" class="node">
<title>A9</title>
<polygon fill="none" stroke="#000000" points="409.5121,-90 323.7859,-90 323.7859,-54 409.5121,-54 409.5121,-90"/>
<text text-anchor="middle" x="366.649" y="-69" font-family="Helvetica,sans-Serif" font-size="10.00" fill="#000000">카피노드설정</text>
</g>
<!-- A8&#45;&gt;A9 -->
<g id="edge10" class="edge">
<title>A8&#45;&gt;A9</title>
<path fill="none" stroke="#000000" d="M224.291,-177.772C239.8594,-153.8709 264.987,-120.2052 294.511,-99 300.4847,-94.7095 307.2213,-91.0163 314.1173,-87.8618"/>
<polygon fill="none" stroke="#000000" points="224.2446,-177.8455 224.4173,-185.0545 217.8292,-187.9866 217.6565,-180.7776 224.2446,-177.8455"/>
<polygon fill="#000000" stroke="#000000" points="323.563,-83.8886 316.0901,-91.9139 318.9541,-85.8273 314.3452,-87.7659 314.3452,-87.7659 314.3452,-87.7659 318.9541,-85.8273 312.6004,-83.618 323.563,-83.8886 323.563,-83.8886"/>
<text text-anchor="middle" x="310.132" y="-95.7078" font-family="Helvetica,sans-Serif" font-size="10.00" fill="#000000">버전노드설정들*</text>
</g>
<!-- A15 -->
<g id="node16" class="node">
<title>A15</title>
<polygon fill="none" stroke="#000000" points="594.5653,-144 495.0627,-144 495.0627,-108 594.5653,-108 594.5653,-144"/>
<text text-anchor="middle" x="544.814" y="-123" font-family="Helvetica,sans-Serif" font-size="10.00" fill="#000000">카피CA노드설정</text>
</g>
<!-- A9&#45;&gt;A15 -->
<g id="edge17" class="edge">
<title>A9&#45;&gt;A15</title>
<path fill="none" stroke="#000000" d="M419.3784,-87.9818C443.2398,-95.2139 471.3015,-103.7191 494.8259,-110.8491"/>
<polygon fill="none" stroke="#000000" points="420.3631,-84.623 409.7778,-85.0719 418.3326,-91.3221 420.3631,-84.623"/>
</g>
<!-- A16 -->
<g id="node17" class="node">
<title>A16</title>
<polygon fill="none" stroke="#000000" points="600.868,-90 488.76,-90 488.76,-54 600.868,-54 600.868,-90"/>
<text text-anchor="middle" x="544.814" y="-69" font-family="Helvetica,sans-Serif" font-size="10.00" fill="#000000">카피오더러노드설정</text>
</g>
<!-- A9&#45;&gt;A16 -->
<g id="edge18" class="edge">
<title>A9&#45;&gt;A16</title>
<path fill="none" stroke="#000000" d="M419.8018,-72C441.4953,-72 466.6039,-72 488.602,-72"/>
<polygon fill="none" stroke="#000000" points="419.7778,-68.5001 409.7778,-72 419.7777,-75.5001 419.7778,-68.5001"/>
</g>
<!-- A17 -->
<g id="node18" class="node">
<title>A17</title>
<polygon fill="none" stroke="#000000" points="599.5723,-36 490.0557,-36 490.0557,0 599.5723,0 599.5723,-36"/>
<text text-anchor="middle" x="544.814" y="-15" font-family="Helvetica,sans-Serif" font-size="10.00" fill="#000000">카피피어노드설정</text>
</g>
<!-- A9&#45;&gt;A17 -->
<g id="edge19" class="edge">
<title>A9&#45;&gt;A17</title>
<path fill="none" stroke="#000000" d="M419.3823,-56.0171C441.6073,-49.2809 467.4758,-41.4404 489.9276,-34.6355"/>
<polygon fill="none" stroke="#000000" points="418.3326,-52.6779 409.7778,-58.9281 420.3631,-59.377 418.3326,-52.6779"/>
</g>
<!-- A12 -->
<g id="node13" class="node">
<title>A12</title>
<polygon fill="none" stroke="#000000" points="732.4521,-265 656.8389,-265 656.8389,-229 732.4521,-229 732.4521,-265"/>
<text text-anchor="middle" x="694.6455" y="-244" font-family="Helvetica,sans-Serif" font-size="10.00" fill="#000000">CA노드설정</text>
</g>
<!-- A10&#45;&gt;A12 -->
<g id="edge14" class="edge">
<title>A10&#45;&gt;A12</title>
<path fill="none" stroke="#000000" d="M585.3497,-207.6093C607.5681,-215.6169 634.9384,-225.4813 656.7308,-233.3354"/>
<polygon fill="none" stroke="#000000" points="586.4536,-204.2868 575.8592,-204.1888 584.0801,-210.8721 586.4536,-204.2868"/>
</g>
<!-- A13 -->
<g id="node14" class="node">
<title>A13</title>
<polygon fill="none" stroke="#000000" points="738.2554,-211 651.0356,-211 651.0356,-175 738.2554,-175 738.2554,-211"/>
<text text-anchor="middle" x="694.6455" y="-190" font-family="Helvetica,sans-Serif" font-size="10.00" fill="#000000">오더러노드설정</text>
</g>
<!-- A10&#45;&gt;A13 -->
<g id="edge15" class="edge">
<title>A10&#45;&gt;A13</title>
<path fill="none" stroke="#000000" d="M585.9751,-193C606.1168,-193 630.3744,-193 650.8564,-193"/>
<polygon fill="none" stroke="#000000" points="585.8592,-189.5001 575.8592,-193 585.8591,-196.5001 585.8592,-189.5001"/>
</g>
<!-- A14 -->
<g id="node15" class="node">
<title>A14</title>
<polygon fill="none" stroke="#000000" points="737.4591,-157 651.8319,-157 651.8319,-121 737.4591,-121 737.4591,-157"/>
<text text-anchor="middle" x="694.6455" y="-136" font-family="Helvetica,sans-Serif" font-size="10.00" fill="#000000">피어노드설정</text>
</g>
<!-- A10&#45;&gt;A14 -->
<g id="edge16" class="edge">
<title>A10&#45;&gt;A14</title>
<path fill="none" stroke="#000000" d="M585.5397,-178.3223C606.0461,-170.9316 630.9037,-161.9729 651.7098,-154.4742"/>
<polygon fill="none" stroke="#000000" points="584.0801,-175.1279 575.8592,-181.8112 586.4536,-181.7132 584.0801,-175.1279"/>
</g>
<!-- A21 -->
<g id="node22" class="node">
<title>A21</title>
<polygon fill="#f5deb3" stroke="#000000" points="114.4744,-496 -.1584,-496 -.1584,-428 120.4744,-428 120.4744,-490 114.4744,-496"/>
<polyline fill="none" stroke="#000000" points="114.4744,-496 114.4744,-490 "/>
<polyline fill="none" stroke="#000000" points="120.4744,-490 114.4744,-490 "/>
<text text-anchor="middle" x="60.158" y="-483" font-family="Helvetica,sans-Serif" font-size="10.00" fill="#000000">설정&#45;Config</text>
<text text-anchor="middle" x="60.158" y="-459" font-family="Helvetica,sans-Serif" font-size="10.00" fill="#000000">노드설정&#45;NodeConfig </text>
<text text-anchor="middle" x="60.158" y="-435" font-family="Helvetica,sans-Serif" font-size="10.00" fill="#000000">조직&#45;Org</text>
</g>
</g>
</svg>
